**ABCDEFGHIJKLMNOPQRSTUVWXYZabcdefghijklmnopqrstuvwxyz**************************
**PARASOLID !"#$%&'()*+,-./:;<=>?@[\]^_`{|}~0123456789**************************
**PART1;
MC=unknown;
MC_MODEL=unknown;
MC_ID=unknown;
OS=unknown;
OS_RELEASE=unknown;
FRU=sdl_parasolid_customer_support;
APPL=parasolid_acceptance_tests;
SITE=unknown;
USER=unknown;
FORMAT=text;
GUISE=transmit;
KEY=/lore/bloomm2/mumfim/mumfim/test/singlescale/examples/cube/cube_int26_nat.x_t;
FILE=/lore/bloomm2/mumfim/mumfim/test/singlescale/examples/cube/cube_int26_nat.x_t;
DATE=unknown;
**PART2;
SCH=SCH_3601185_36001;
USFLD_SIZE=1;
**PART3;
**END_OF_HEADER*****************************************************************
T51 : TRANSMIT FILE created by modeller version 360118523 SCH_3601185_36001_1300
6231 1 12 36 CCCI7 lattice222 0 CCCI4 mesh1006 0 I8 polyline1008 0 CCCCCCCDI5 ow
ner1040 0 CCCI16 boundary_lattice222 0 CCCI13 boundary_mesh1006 0 I17 boundary_p
olyline1008 0 CCCA16 index_map_offset0 0 1 dA9 index_map82 0 A17 node_id_index_m
ap82 0 A20 schema_embedding_map82 0 A5 child12 0 A14 lowest_node_id0 0 1 dA16 me
sh_offset_data206 0 Z1 100 2 3 0 0 0 0 0 0 0 1e3 1e-8 0 0 0 1 0 1 1 4 0 5 6 7 0
 0 8 9 10 0 0 0 0 0 0 0 0 81 255 1 2 99 11 1 12 0 0 0 13 0 70 11 CI9 list_type0
 0 1 uI10 notransmit0 0 1 lCCCDCCDI12 finger_index0 0 1 dI12 finger_block1012 0
 CZ3 0 4 T1 0 0 11 20 1 14 14 0 13 255 4 2 0 1 0 15 0 0 16 0 0 50 255 5 51 0 15
 17 0 0 +.01524 .01524 .03048 0 0 1 1 0 0 0 30 255 6 59 0 9 18 0 0 +.01524 0 .03
048 -1 0 0 0 29 255 7 55 0 10 19 0 0 0 .03048 0 19 9 CCCCCCI5 frame230 0 CA5 own
er12 0 Z8 95 0 1 16 0 20 0 V0 0 16 255 9 31 0 ?21 0 22 6 0 0 1 0 18 255 10 20 0
 23 0 24 7 ?1 0 17 255 23 0 25 26 27 10 28 22 0 21 -0 18 24 18 0 27 10 29 19 ?1
 0 17 27 0 25 23 30 24 31 32 0 28 -0 18 29 16 0 30 24 33 34 ?1 0 29 19 54 0 24 3
4 7 0 .03048 .03048 0 29 34 53 0 29 35 19 .03048 .03048 .03048 0 29 35 52 0 33 3
6 34 .03048 0 .03048 0 18 33 14 0 37 29 38 35 ?1 0 29 36 38 0 39 40 35 0 0 0 0 1
8 39 8 0 41 42 43 36 ?1 0 29 40 37 0 42 44 36 0 .03048 0 0 18 42 10 0 45 38 39 4
0 ?1 0 29 44 36 0 38 46 40 .03048 .03048 0 0 18 38 12 0 47 33 42 44 ?1 0 29 46 3
5 0 43 0 44 .03048 0 0 0 18 43 7 0 48 39 0 46 ?1 0 17 48 0 49 41 47 43 50 51 0 5
2 -0 15 255 49 5 0 48 53 0 0 17 41 0 49 45 48 39 54 55 0 56 -0 17 47 0 49 48 45
 38 57 58 0 59 -0 17 50 0 60 61 52 38 48 51 0 0 +0 16 51 3 0 ?50 55 0 62 0 0 1 0
 17 52 0 60 50 37 43 63 64 0 54 -0 15 60 4 0 50 65 0 0 17 37 0 60 52 61 33 30 66
 0 26 +0 17 63 0 67 21 54 33 52 64 0 0 +0 16 64 15 0 ?63 68 58 69 0 0 1 0 17 54
 0 67 63 56 43 41 55 0 0 +0 15 67 29 0 63 70 0 0 17 56 0 67 54 21 39 71 72 0 73
 -0 16 55 9 0 ?54 74 51 75 0 0 1 0 16 74 11 0 ?73 58 55 76 0 0 1 0 30 75 39 0 55
 0 62 0 +.01524 0 0 1 0 0 0 30 62 40 0 51 75 77 0 +.03048 .01524 0 0 1 0 0 30 77
 41 0 58 62 76 0 +.01524 .03048 0 -1 0 0 0 16 58 13 0 ?57 64 74 77 0 0 1 0 30 76
 42 0 74 77 69 0 +0 .01524 0 0 -1 0 0 30 69 47 0 64 76 78 0 +.03048 0 0 0 0 1 0
 30 78 48 0 68 69 79 0 +.03048 .03048 0 0 0 1 0 16 68 17 0 ?61 80 64 78 0 0 1 0
 30 79 49 0 80 78 81 0 +0 .03048 0 0 0 1 0 16 80 19 0 ?82 72 68 79 0 0 1 0 30 81
 50 0 72 79 83 0 +0 0 0 0 0 1 0 16 72 21 0 ?71 66 80 81 0 0 1 0 30 83 56 0 66 81
 84 0 +.03048 .01524 .03048 0 -1 0 0 16 66 22 0 ?37 32 72 83 0 0 1 0 30 84 57 0
 32 83 18 0 +.01524 .03048 .03048 1 0 0 0 16 32 25 0 ?31 22 66 84 0 0 1 0 30 18
 58 0 22 84 6 0 +0 .01524 .03048 0 1 0 0 16 22 28 0 ?28 9 32 18 0 0 1 0 17 28 0
 85 86 71 24 23 22 0 82 +0 15 85 26 0 71 87 0 0 17 86 0 85 73 28 42 82 80 0 57 -
0 17 71 0 85 28 73 10 56 72 0 0 +0 17 82 0 88 31 57 24 86 80 0 0 +0 15 88 23 0 8
2 89 0 0 17 31 0 88 59 82 29 27 32 0 61 +0 17 57 0 88 82 59 42 47 58 0 0 +0 17 5
9 0 88 57 31 38 61 68 0 50 -0 17 61 0 60 37 50 29 59 68 0 0 +0 14 255 89 24 90 ?
53 87 88 4 91 +0 0 53 87 20 0 91 255 90 -32764 92 89 93 0 94 95 0 14 53 6 95 ?65
 89 49 4 96 +0 0 65 89 20 0 14 87 27 94 ?89 70 85 4 97 +0 0 89 70 20 0 50 91 44
 0 89 98 97 0 +.01524 .03048 0 0 1 0 0 0 1 0 13 20 96 0 0 0 0 0 0 8 15 0 14 15 3
3 99 ?70 0 25 4 5 +0 0 70 0 20 0 91 99 -32764 92 15 100 0 0 101 0 14 70 30 101 ?
87 15 67 4 17 +0 0 87 15 20 0 15 25 32 0 26 15 0 0 17 26 0 25 30 23 33 21 9 0 63
 -0 17 30 0 25 27 26 29 37 66 0 31 -0 17 21 0 67 56 63 10 26 9 0 71 +0 91 101 -3
2764 92 70 102 0 99 94 0 50 17 46 0 70 97 5 0 +.01524 0 0 0 -1 0 0 0 -1 0 50 97
 45 0 87 91 17 0 +0 .01524 0 -1 0 0 0 0 1 0 90 255 92 79 103 1 0 104 2 105 0 81
 1 102 70 106 70 107 101 100 108 109 0 91 94 -32764 92 87 108 0 101 90 0 81 1 10
8 72 106 87 110 94 102 93 111 0 80 7 CCCCCDI12 legal_owners0 17 1 lCZ1 106 112 1
13 8015 0 0 0 0 3 5 0 0 0 FFFFTFFFFFFFFFFFF2 0 81 1 110 71 114 87 115 108 107 11
6 117 0 81 1 93 74 106 89 116 90 108 118 119 0 83 255 1 111 0 0 81 1 116 73 114
 89 120 93 110 121 122 0 81 1 118 76 106 53 121 95 93 123 124 0 83 1 119 0 0 81
 1 121 75 114 53 125 118 116 126 127 0 91 95 -32764 92 53 118 0 90 105 0 81 1 12
3 78 106 65 126 105 118 0 128 0 83 1 124 0 0 14 65 1 105 ?0 53 60 4 98 +0 0 0 53
 20 0 81 1 126 77 114 65 129 123 121 0 130 0 91 105 -32764 92 65 123 0 95 0 0 83
 1 128 0 0 80 1 114 0 131 8001 0 0 0 0 3 5 0 0 0 FFFFTFTFFFFFFFFFF2 0 81 2 129 6
5 132 65 0 126 125 0 133 134 0 83 3 130 0 1 0 0 80 2 132 135 136 9000 0 0 0 0 3
 6 0 0 0 FFFFTFFFFFFFFFFFF1 1 0 81 2 125 64 132 53 0 121 120 129 137 138 0 82 25
5 1 133 4 0 82 1 134 6 0 81 2 120 63 132 89 0 116 115 125 139 140 0 82 1 137 4 0
 82 1 138 5 0 81 2 115 62 132 87 0 110 141 120 142 143 0 82 1 139 4 0 82 1 140 4
 0 81 2 141 61 132 70 0 107 144 115 145 146 0 82 1 142 4 0 82 1 143 3 0 81 1 107
 69 114 70 141 102 147 110 148 0 81 2 144 60 132 15 0 147 0 141 149 150 0 82 1 1
45 4 0 82 1 146 2 0 81 1 147 67 114 15 144 100 0 107 151 0 82 1 149 4 0 82 1 150
 1 0 81 1 100 68 106 15 147 99 0 102 152 0 83 3 151 0 1 0 0 83 1 152 0 0 83 3 14
8 0 1 0 0 79 255 23 136 UG2/CMOD_FACR_ATTRIBUTE0 79 15 131 SDL/TYSA_COLOUR0 50 9
8 43 0 65 96 91 0 +.03048 .01524 0 1 0 0 0 0 -1 0 50 96 34 0 53 0 98 0 +.01524 .
01524 0 0 0 -1 -1 0 0 0 83 3 127 0 1 0 0 83 3 122 0 1 0 0 83 3 117 0 1 0 0 79 21
 113 SDL/TYSA_TRANSLUCENCY0 83 1 109 0 0 81 1 103 100 153 92 154 0 0 0 155 0 81
 2 104 86 156 1 92 157 0 0 158 159 0 80 2 156 160 161 8004 0 0 0 0 3 5 0 0 0 FFT
FFFFFFFFFFFFFF2 3 0 81 1 157 89 162 1 104 163 0 0 164 0 83 1 158 7830.6436993534
8 0 84 255 8 159 KG/CU M 0 80 1 162 165 166 9000 0 0 0 0 3 5 0 0 0 FFTFFFFFFFFFF
FFFF1 0 81 1 163 97 167 1 157 12 0 0 168 0 82 1 164 2 0 80 1 167 162 169 9000 0
 0 0 0 3 5 0 0 0 FFTFFFFFFFFFFFFFF1 0 81 1 12 98 170 1 163 2 0 0 171 0 82 1 168
 8963 0 80 1 170 167 172 9000 0 0 0 0 3 5 0 0 0 FFTFFFFFFFFFFFFFF1 0 82 1 171 0
 0 79 23 172 UG2/CMOD_META_ATTRIBUTE0 79 23 169 UG2/CMOD_ROOT_ATTRIBUTE0 79 7 16
6 body_id0 79 16 161 SDL/TYSA_DENSITY0 80 1 153 11 173 9000 0 0 0 0 3 5 0 0 0 FF
FFFFFFTFFFFFFFF1 0 81 1 154 82 165 92 174 103 0 0 175 0 82 1 155 8963 0 80 1 165
 176 177 9000 0 0 0 0 3 5 0 0 0 FFFFFFFFTFFFFFFFF1 0 81 1 174 81 176 92 0 154 0
 0 178 0 82 1 175 0 0 80 1 176 132 179 9000 0 0 0 0 3 5 0 0 0 FFFFFFFFTFFFFFFFF1
 0 82 1 178 0 0 79 23 179 UG2/CMOD_NEST_ATTRIBUTE0 79 23 177 UG2/CMOD_DUMY_ATTRI
BUTE0 79 23 173 UG2/CMOD_FEAT_ATTRIBUTE0 17 73 0 85 71 86 39 45 74 0 0 +0 17 45
 0 49 47 41 42 73 74 0 86 -0 19 16 94 0 1 0 8 4 0 S0 0 74 4 CI16 index_map_offse
t0 0 1 dCCZ20 14 11 0 0 129 126 123 174 154 104 157 163 12 2 103 0 0 0 0 0 0 0 0
 0 0 80 1 11 170 180 9000 0 0 0 0 3 5 0 0 0 FFTFFFFFFFFFFFFFF1 0 82 1 13 8962 0
 79 23 180 UG2/CMOD_HOBJ_ATTRIBUTE0 1 0 
