**ABCDEFGHIJKLMNOPQRSTUVWXYZabcdefghijklmnopqrstuvwxyz**************************
**PARASOLID !"#$%&'()*+,-./:;<=>?@[\]^_`{|}~0123456789**************************
**PART1;
MC=unknown;
MC_MODEL=unknown;
MC_ID=unknown;
OS=unknown;
OS_RELEASE=unknown;
FRU=sdl_parasolid_customer_support;
APPL=parasolid_acceptance_tests;
SITE=unknown;
USER=unknown;
FORMAT=text;
GUISE=transmit;
KEY=/lore/maxim/mumfim/mumfim/test/singlescale/examples/cube/cube_nat.x_t;
FILE=/lore/maxim/mumfim/mumfim/test/singlescale/examples/cube/cube_nat.x_t;
DATE=unknown;
**PART2;
SCH=SCH_3600198_36001;
USFLD_SIZE=1;
**PART3;
**END_OF_HEADER*****************************************************************
T51 : TRANSMIT FILE created by modeller version 360019823 SCH_3600198_36001_1300
6231 1 12 36 CCCI7 lattice222 0 CCCI4 mesh1006 0 I8 polyline1008 0 CCCCCCCDI5 ow
ner1040 0 CCCI16 boundary_lattice222 0 CCCI13 boundary_mesh1006 0 I17 boundary_p
olyline1008 0 CCCA16 index_map_offset0 0 1 dA9 index_map82 0 A17 node_id_index_m
ap82 0 A20 schema_embedding_map82 0 A5 child12 0 A14 lowest_node_id0 0 1 dA16 me
sh_offset_data206 0 Z1 100 2 3 0 0 0 0 0 0 0 1e3 1e-8 0 4 0 1 0 1 1 5 0 6 7 8 0
 0 9 10 11 0 0 0 0 0 0 0 0 81 255 1 2 99 12 1 13 0 0 0 14 0 70 11 CI9 list_type0
 0 1 uI10 notransmit0 0 1 lCCCDCCDI12 finger_index0 0 1 dI12 finger_block1012 0
 CZ3 0 4 T1 0 0 11 20 1 15 15 0 13 255 5 2 0 1 0 16 0 0 17 0 0 50 255 6 51 0 16
 18 0 0 +.01524 .01524 .03048 0 0 1 1 0 0 0 30 255 7 59 0 10 19 0 0 +.01524 0 .0
3048 -1 0 0 0 29 255 8 55 0 11 20 0 0 0 .03048 0 19 9 CCCCCCI5 frame230 0 CA5 ow
ner12 0 Z9 95 0 1 17 0 21 0 V0 0 16 255 10 31 0 ?22 0 23 7 0 0 1 0 18 255 11 20
 0 24 0 25 8 ?1 0 17 255 24 0 26 27 28 11 29 23 0 22 -0 18 25 18 0 28 11 30 20 ?
1 0 17 28 0 26 24 31 25 32 33 0 29 -0 18 30 16 0 31 25 34 35 ?1 0 29 20 54 0 25
 35 8 0 .03048 .03048 0 29 35 53 0 30 36 20 .03048 .03048 .03048 0 29 36 52 0 34
 37 35 .03048 0 .03048 0 18 34 14 0 38 30 39 36 ?1 0 29 37 38 0 40 41 36 0 0 0 0
 18 40 8 0 42 43 44 37 ?1 0 29 41 37 0 43 45 37 0 .03048 0 0 18 43 10 0 46 39 40
 41 ?1 0 29 45 36 0 39 47 41 .03048 .03048 0 0 18 39 12 0 48 34 43 45 ?1 0 29 47
 35 0 44 0 45 .03048 0 0 0 18 44 7 0 49 40 0 47 ?1 0 17 49 0 50 42 48 44 51 52 0
 53 -0 15 255 50 5 0 49 54 0 0 17 42 0 50 46 49 40 55 56 0 57 -0 17 48 0 50 49 4
6 39 58 59 0 60 -0 17 51 0 61 62 53 39 49 52 0 0 +0 16 52 3 0 ?51 56 0 63 0 0 1
 0 17 53 0 61 51 38 44 64 65 0 55 -0 15 61 4 0 51 66 0 0 17 38 0 61 53 62 34 31
 67 0 27 +0 17 64 0 68 22 55 34 53 65 0 0 +0 16 65 15 0 ?64 69 59 70 0 0 1 0 17
 55 0 68 64 57 44 42 56 0 0 +0 15 68 29 0 64 71 0 0 17 57 0 68 55 22 40 72 73 0
 74 -0 16 56 9 0 ?55 75 52 76 0 0 1 0 16 75 11 0 ?74 59 56 77 0 0 1 0 30 76 39 0
 56 0 63 0 +.01524 0 0 1 0 0 0 30 63 40 0 52 76 78 0 +.03048 .01524 0 0 1 0 0 30
 78 41 0 59 63 77 0 +.01524 .03048 0 -1 0 0 0 16 59 13 0 ?58 65 75 78 0 0 1 0 30
 77 42 0 75 78 70 0 +0 .01524 0 0 -1 0 0 30 70 47 0 65 77 79 0 +.03048 0 0 0 0 1
 0 30 79 48 0 69 70 80 0 +.03048 .03048 0 0 0 1 0 16 69 17 0 ?62 81 65 79 0 0 1
 0 30 80 49 0 81 79 82 0 +0 .03048 0 0 0 1 0 16 81 19 0 ?83 73 69 80 0 0 1 0 30
 82 50 0 73 80 84 0 +0 0 0 0 0 1 0 16 73 21 0 ?72 67 81 82 0 0 1 0 30 84 56 0 67
 82 85 0 +.03048 .01524 .03048 0 -1 0 0 16 67 22 0 ?38 33 73 84 0 0 1 0 30 85 57
 0 33 84 19 0 +.01524 .03048 .03048 1 0 0 0 16 33 25 0 ?32 23 67 85 0 0 1 0 30 1
9 58 0 23 85 7 0 +0 .01524 .03048 0 1 0 0 16 23 28 0 ?29 10 33 19 0 0 1 0 17 29
 0 86 87 72 25 24 23 0 83 +0 15 86 26 0 72 88 0 0 17 87 0 86 74 29 43 83 81 0 58
 -0 17 72 0 86 29 74 11 57 73 0 0 +0 17 83 0 89 32 58 25 87 81 0 0 +0 15 89 23 0
 83 90 0 0 17 32 0 89 60 83 30 28 33 0 62 +0 17 58 0 89 83 60 43 48 59 0 0 +0 17
 60 0 89 58 32 39 62 69 0 51 -0 17 62 0 61 38 51 30 60 69 0 0 +0 14 255 90 24 91
 ?54 88 89 5 92 +0 0 54 88 21 0 91 255 91 -32764 93 90 94 0 95 96 0 14 54 6 96 ?
66 90 50 5 97 +0 0 66 90 21 0 14 88 27 95 ?90 71 86 5 98 +0 0 90 71 21 0 50 92 4
4 0 90 99 98 0 +.01524 .03048 0 0 1 0 0 0 1 0 13 21 96 0 0 0 0 0 0 9 16 0 14 16
 33 100 ?71 0 26 5 6 +0 0 71 0 21 0 91 100 -32764 93 16 101 0 0 102 0 14 71 30 1
02 ?88 16 68 5 18 +0 0 88 16 21 0 15 26 32 0 27 16 0 0 17 27 0 26 31 24 34 22 10
 0 64 -0 17 31 0 26 28 27 30 38 67 0 32 -0 17 22 0 68 57 64 11 27 10 0 72 +0 91
 102 -32764 93 71 103 0 100 95 0 50 18 46 0 71 98 6 0 +.01524 0 0 0 -1 0 0 0 -1
 0 50 98 45 0 88 92 18 0 +0 .01524 0 -1 0 0 0 0 1 0 90 255 93 79 104 1 0 105 2 1
06 0 81 1 103 70 107 71 108 102 101 109 110 0 91 95 -32764 93 88 109 0 102 91 0
 81 1 109 72 107 88 111 95 103 94 112 0 80 7 CCCCCDI12 legal_owners0 17 1 lCZ1 1
07 113 114 8015 0 0 0 0 3 5 0 0 0 FFFFTFFFFFFFFFFFF2 0 81 1 111 71 115 88 116 10
9 108 117 118 0 81 1 94 74 107 90 117 91 109 119 120 0 83 255 1 112 0 0 81 1 117
 73 115 90 121 94 111 122 123 0 81 1 119 76 107 54 122 96 94 124 125 0 83 1 120
 0 0 81 1 122 75 115 54 126 119 117 127 128 0 91 96 -32764 93 54 119 0 91 106 0
 81 1 124 78 107 66 127 106 119 0 129 0 83 1 125 0 0 14 66 1 106 ?0 54 61 5 99 +
0 0 0 54 21 0 81 1 127 77 115 66 130 124 122 0 131 0 91 106 -32764 93 66 124 0 9
6 0 0 83 1 129 0 0 80 1 115 0 132 8001 0 0 0 0 3 5 0 0 0 FFFFTFTFFFFFFFFFF2 0 81
 2 130 65 133 66 0 127 126 0 134 135 0 83 3 131 0 1 0 0 80 2 133 136 137 9000 0
 0 0 0 3 6 0 0 0 FFFFTFFFFFFFFFFFF1 1 0 81 2 126 64 133 54 0 122 121 130 138 139
 0 82 255 1 134 4 0 82 1 135 6 0 81 2 121 63 133 90 0 117 116 126 140 141 0 82 1
 138 4 0 82 1 139 5 0 81 2 116 62 133 88 0 111 142 121 143 144 0 82 1 140 4 0 82
 1 141 4 0 81 2 142 61 133 71 0 108 145 116 146 147 0 82 1 143 4 0 82 1 144 3 0
 81 1 108 69 115 71 142 103 148 111 149 0 81 2 145 60 133 16 0 148 0 142 150 151
 0 82 1 146 4 0 82 1 147 2 0 81 1 148 67 115 16 145 101 0 108 152 0 82 1 150 4 0
 82 1 151 1 0 81 1 101 68 107 16 148 100 0 103 153 0 83 3 152 0 1 0 0 83 1 153 0
 0 83 3 149 0 1 0 0 79 255 23 137 UG2/CMOD_FACR_ATTRIBUTE0 79 15 132 SDL/TYSA_CO
LOUR0 50 99 43 0 66 97 92 0 +.03048 .01524 0 1 0 0 0 0 -1 0 50 97 34 0 54 0 99 0
 +.01524 .01524 0 0 0 -1 -1 0 0 0 83 3 128 0 1 0 0 83 3 123 0 1 0 0 83 3 118 0 1
 0 0 79 21 114 SDL/TYSA_TRANSLUCENCY0 83 1 110 0 0 81 1 104 100 154 93 155 0 0 0
 156 0 81 2 105 86 157 1 93 158 0 0 159 160 0 80 2 157 161 162 8004 0 0 0 0 3 5
 0 0 0 FFTFFFFFFFFFFFFFF2 3 0 81 1 158 89 163 1 105 164 0 0 165 0 83 1 159 7830.
64369935348 0 84 255 8 160 KG/CU M 0 80 1 163 166 167 9000 0 0 0 0 3 5 0 0 0 FFT
FFFFFFFFFFFFFF1 0 81 1 164 97 168 1 158 13 0 0 169 0 82 1 165 2 0 80 1 168 163 1
70 9000 0 0 0 0 3 5 0 0 0 FFTFFFFFFFFFFFFFF1 0 81 1 13 98 171 1 164 2 0 0 172 0
 82 1 169 8963 0 80 1 171 168 173 9000 0 0 0 0 3 5 0 0 0 FFTFFFFFFFFFFFFFF1 0 82
 1 172 0 0 79 23 173 UG2/CMOD_META_ATTRIBUTE0 79 23 170 UG2/CMOD_ROOT_ATTRIBUTE0
 79 7 167 body_id0 79 16 162 SDL/TYSA_DENSITY0 80 1 154 12 174 9000 0 0 0 0 3 5
 0 0 0 FFFFFFFFTFFFFFFFF1 0 81 1 155 82 166 93 175 104 0 0 176 0 82 1 156 8963 0
 80 1 166 177 178 9000 0 0 0 0 3 5 0 0 0 FFFFFFFFTFFFFFFFF1 0 81 1 175 81 177 93
 0 155 0 0 179 0 82 1 176 0 0 80 1 177 133 180 9000 0 0 0 0 3 5 0 0 0 FFFFFFFFTF
FFFFFFF1 0 82 1 179 0 0 79 23 180 UG2/CMOD_NEST_ATTRIBUTE0 79 23 178 UG2/CMOD_DU
MY_ATTRIBUTE0 79 23 174 UG2/CMOD_FEAT_ATTRIBUTE0 17 74 0 86 72 87 40 46 75 0 0 +
0 17 46 0 50 48 42 43 74 75 0 87 -0 19 17 94 0 1 0 9 5 0 S0 0 74 4 CI16 index_ma
p_offset0 0 1 dCCZ20 15 11 0 0 130 127 124 175 155 105 158 164 13 2 104 0 0 0 0
 0 0 0 0 0 0 80 1 12 171 181 9000 0 0 0 0 3 5 0 0 0 FFTFFFFFFFFFFFFFF1 0 82 1 14
 8962 0 79 23 181 UG2/CMOD_HOBJ_ATTRIBUTE0 1 0 
