**ABCDEFGHIJKLMNOPQRSTUVWXYZabcdefghijklmnopqrstuvwxyz**************************
**PARASOLID !"#$%&'()*+,-./:;<=>?@[\]^_`{|}~0123456789**************************
**PART1;
MC=HP risc;
MC_MODEL=9000/710;
MC_ID=enghpp13;
OS=hp-ux;
OS_RELEASE=a.09.01;
FRU=mdc_ugii_v7.0_djl_can_vrh;
APPL=unigraphics;
SITE=unknown;
USER=gharib;
FORMAT=text;
GUISE=transmit;
KEY=asm_test-000;
FILE=/draft1/jamshid/test-parts/asm_test-000.xmt_txt;
DATE=6-sep-1994;
**PART2;
SCH=SCH_600323_6020;
USFLD_SIZE=0;
**PART3;
**END_OF_HEADER*****************************************************************
T50 : TRANSMIT FILE created by modeller version 60032315 SCH_600323_60200 12 1 1
00 2 3 0 0 0 1e3 1e-8 4 2 0 0 0 1 5 6 7 8 9 10 11 81 1 2 99 12 1 13 0 0 0 14 70
 3 0 1 0 0 4 11 20 4 15 15 1 102 47 4 /draft1/jamshid/test-parts/asm_test-000.xm
t_txt13 5 2 0 1 0 16 0 0 17 0 50 6 51 0 16 18 0 0 +.01524 .01524 .03048 0 0 1 1
 0 0 30 7 59 0 10 19 0 0 +.01524 0 .03048 -1 0 0 29 8 55 0 11 20 0 0 0 .03048 19
 9 95 0 1 17 0 21 V16 10 31 0 22 0 23 7 ?0 0 1 18 11 20 0 24 0 25 8 ?1 17 24 26
 27 28 11 29 23 0 22 -18 25 18 0 28 11 30 20 ?1 17 28 26 24 31 25 32 33 0 29 -18
 30 16 0 31 25 34 35 ?1 29 20 54 0 25 35 8 0 .03048 .03048 29 35 53 0 30 36 20 .
03048 .03048 .03048 29 36 52 0 34 37 35 .03048 0 .03048 18 34 14 0 38 30 39 36 ?
1 29 37 38 0 40 41 36 0 0 0 18 40 8 0 42 43 44 37 ?1 29 41 37 0 43 45 37 0 .0304
8 0 18 43 10 0 46 39 40 41 ?1 29 45 36 0 39 47 41 .03048 .03048 0 18 39 12 0 48
 34 43 45 ?1 29 47 35 0 44 0 45 .03048 0 0 18 44 7 0 49 40 0 47 ?1 17 49 50 42 4
8 44 51 52 0 53 -15 50 5 0 49 54 0 17 42 50 46 49 40 55 56 0 57 -17 48 50 49 46
 39 58 59 0 60 -17 51 61 62 53 39 49 52 0 0 +16 52 3 0 51 56 0 63 ?0 0 1 17 53 6
1 51 38 44 64 65 0 55 -15 61 4 0 51 66 0 17 38 61 53 62 34 31 67 0 27 +17 64 68
 22 55 34 53 65 0 0 +16 65 15 0 64 69 59 70 ?0 0 1 17 55 68 64 57 44 42 56 0 0 +
15 68 29 0 64 71 0 17 57 68 55 22 40 72 73 0 74 -16 56 9 0 55 75 52 76 ?0 0 1 16
 75 11 0 74 59 56 77 ?0 0 1 30 76 39 0 56 0 63 0 +.01524 0 0 1 0 0 30 63 40 0 52
 76 78 0 +.03048 .01524 0 0 1 0 30 78 41 0 59 63 77 0 +.01524 .03048 0 -1 0 0 16
 59 13 0 58 65 75 78 ?0 0 1 30 77 42 0 75 78 70 0 +0 .01524 0 0 -1 0 30 70 47 0
 65 77 79 0 +.03048 0 0 0 0 1 30 79 48 0 69 70 80 0 +.03048 .03048 0 0 0 1 16 69
 17 0 62 81 65 79 ?0 0 1 30 80 49 0 81 79 82 0 +0 .03048 0 0 0 1 16 81 19 0 83 7
3 69 80 ?0 0 1 30 82 50 0 73 80 84 0 +0 0 0 0 0 1 16 73 21 0 72 67 81 82 ?0 0 1
 30 84 56 0 67 82 85 0 +.03048 .01524 .03048 0 -1 0 16 67 22 0 38 33 73 84 ?0 0
 1 30 85 57 0 33 84 19 0 +.01524 .03048 .03048 1 0 0 16 33 25 0 32 23 67 85 ?0 0
 1 30 19 58 0 23 85 7 0 +0 .01524 .03048 0 1 0 16 23 28 0 29 10 33 19 ?0 0 1 17
 29 86 87 72 25 24 23 0 83 +15 86 26 0 72 88 0 17 87 86 74 29 43 83 81 0 58 -17
 72 86 29 74 11 57 73 0 0 +17 83 89 32 58 25 87 81 0 0 +15 89 23 0 83 90 0 17 32
 89 60 83 30 28 33 0 62 +17 58 89 83 60 43 48 59 0 0 +17 60 89 58 32 39 62 69 0
 51 -17 62 61 38 51 30 60 69 0 0 +14 90 24 91 54 88 89 5 92 +?0 0 54 88 21 91 91
 -32764 93 90 94 0 95 96 14 54 6 96 66 90 50 5 97 +?0 0 66 90 21 14 88 27 95 90
 71 86 5 98 +?0 0 90 71 21 50 92 44 0 90 99 98 0 +.01524 .03048 0 0 1 0 0 0 1 13
 21 96 0 0 0 0 0 0 9 16 14 16 33 100 71 0 26 5 6 +?0 0 71 0 21 91 100 -32764 93
 16 101 0 0 102 14 71 30 102 88 16 68 5 18 +?0 0 88 16 21 15 26 32 0 27 16 0 17
 27 26 31 24 34 22 10 0 64 -17 31 26 28 27 30 38 67 0 32 -17 22 68 57 64 11 27 1
0 0 72 +91 102 -32764 93 71 103 0 100 95 50 18 46 0 71 98 6 0 +.01524 0 0 0 -1 0
 0 0 -1 50 98 45 0 88 92 18 0 +0 .01524 0 -1 0 0 0 0 1 90 93 79 104 1 0 105 2 10
6 81 1 103 70 107 71 108 102 101 109 110 91 95 -32764 93 88 109 0 102 91 81 1 10
9 72 107 88 111 95 103 94 112 80 1 107 113 8015 114 0 0 0 0 3 5 0 0 FFFFTFFFFFFF
F2 81 1 111 71 115 88 116 109 108 117 118 81 1 94 74 107 90 117 91 109 119 120 8
3 1 112 0 81 1 117 73 115 90 121 94 111 122 123 81 1 119 76 107 54 122 96 94 124
 125 83 1 120 0 81 1 122 75 115 54 126 119 117 127 128 91 96 -32764 93 54 119 0
 91 106 81 1 124 78 107 66 127 106 119 0 129 83 1 125 0 14 66 1 106 0 54 61 5 99
 +?0 0 0 54 21 81 1 127 77 115 66 130 124 122 0 131 91 106 -32764 93 66 124 0 96
 0 83 1 129 0 80 1 115 0 8001 132 0 0 0 0 3 5 0 0 FFFFTFTFFFFFF2 81 2 130 65 133
 66 0 127 126 0 134 135 83 3 131 0 1 0 80 2 133 136 9000 137 0 0 0 0 3 6 0 0 FFF
FTFFFFFFFF1 1 81 2 126 64 133 54 0 122 121 130 138 139 82 1 134 4 82 1 135 6 81
 2 121 63 133 90 0 117 116 126 140 141 82 1 138 4 82 1 139 5 81 2 116 62 133 88
 0 111 142 121 143 144 82 1 140 4 82 1 141 4 81 2 142 61 133 71 0 108 145 116 14
6 147 82 1 143 4 82 1 144 3 81 1 108 69 115 71 142 103 148 111 149 81 2 145 60 1
33 16 0 148 0 142 150 151 82 1 146 4 82 1 147 2 81 1 148 67 115 16 145 101 0 108
 152 82 1 150 4 82 1 151 1 81 1 101 68 107 16 148 100 0 103 153 83 3 152 0 1 0 8
3 1 153 0 83 3 149 0 1 0 79 23 137 UG2/CMOD_FACR_ATTRIBUTE79 15 132 SDL/TYSA_COL
OUR50 99 43 0 66 97 92 0 +.03048 .01524 0 1 0 0 0 0 -1 50 97 34 0 54 0 99 0 +.01
524 .01524 0 0 0 -1 -1 0 0 83 3 128 0 1 0 83 3 123 0 1 0 83 3 118 0 1 0 79 21 11
4 SDL/TYSA_TRANSLUCENCY83 1 110 0 81 1 104 100 154 93 155 0 0 0 156 81 2 105 86
 157 1 93 158 0 0 159 160 80 2 157 161 8004 162 0 0 0 0 3 5 0 0 FFTFFFFFFFFFF2 3
 81 1 158 89 163 1 105 164 0 0 165 83 1 159 7830.64369935348 84 8 160 KG/CU M 80
 1 163 166 9000 167 0 0 0 0 3 5 0 0 FFTFFFFFFFFFF1 81 1 164 97 168 1 158 13 0 0
 169 82 1 165 2 80 1 168 170 9000 171 0 0 0 0 3 5 0 0 FFTFFFFFFFFFF1 81 1 13 98
 172 1 164 2 0 0 173 82 1 169 8963 80 1 172 168 9000 174 0 0 0 0 3 5 0 0 FFTFFFF
FFFFFF1 82 1 173 0 79 23 174 UG2/CMOD_META_ATTRIBUTE79 23 171 UG2/CMOD_ROOT_ATTR
IBUTE79 7 167 body_id79 16 162 SDL/TYSA_DENSITY80 1 154 175 9000 176 0 0 0 0 3 5
 0 0 FFFFFFFFTFFFF1 81 1 155 82 177 93 178 104 0 0 179 82 1 156 8963 80 1 177 18
0 9000 181 0 0 0 0 3 5 0 0 FFFFFFFFTFFFF1 81 1 178 81 180 93 0 155 0 0 182 82 1
 179 0 80 1 180 154 9000 183 0 0 0 0 3 5 0 0 FFFFFFFFTFFFF1 82 1 182 0 79 23 183
 UG2/CMOD_NEST_ATTRIBUTE79 23 181 UG2/CMOD_DUMY_ATTRIBUTE79 23 176 UG2/CMOD_FEAT
_ATTRIBUTE17 74 86 72 87 40 46 75 0 0 +17 46 50 48 42 43 74 75 0 87 -19 17 94 0
 1 0 9 5 S74 20 15 11 0 130 127 124 178 155 105 158 164 13 2 104 0 0 0 0 0 0 0 0
 0 80 1 12 184 9000 185 0 0 0 0 3 5 0 0 FFTFFFFFFFFFF1 82 1 14 8962 79 23 185 UG
2/CMOD_HOBJ_ATTRIBUTE1 0 
