**ABCDEFGHIJKLMNOPQRSTUVWXYZabcdefghijklmnopqrstuvwxyz**************************
**PARASOLID !"#$%&'()*+,-./:;<=>?@[\]^_`{|}~0123456789**************************
**PART1;
MC=unknown;
MC_MODEL=unknown;
MC_ID=unknown;
OS=unknown;
OS_RELEASE=unknown;
FRU=sdl_parasolid_customer_support;
APPL=parasolid_acceptance_tests;
SITE=unknown;
USER=unknown;
FORMAT=text;
GUISE=transmit;
KEY=/users/bloomm2/gds2model/src/gds2model/bar_nat.x_t;
FILE=/users/bloomm2/gds2model/src/gds2model/bar_nat.x_t;
DATE=unknown;
**PART2;
SCH=SCH_3601185_36001;
USFLD_SIZE=1;
**PART3;
**END_OF_HEADER*****************************************************************
T51 : TRANSMIT FILE created by modeller version 360118523 SCH_3601185_36001_1300
6231 1 176 6 14 PART_XMT_BLOCK9 Part list9 n_entries0 0 1 d16 index_map_offset0
 0 1 d9 index_map82 0 20 schema_embedding_map82 0 16 mesh_offset_data206 0 7 ent
ries1005 1 T6 1 6 0 0 0 0 2 3 4 5 6 7 0 12 36 CCCI7 lattice222 0 CCCI4 mesh1006
 0 I8 polyline1008 0 CCCCCCCDI5 owner1040 0 CCCI16 boundary_lattice222 0 CCCI13
 boundary_mesh1006 0 I17 boundary_polyline1008 0 CCCA16 index_map_offset0 0 1 dA
9 index_map82 0 A17 node_id_index_map82 0 A20 schema_embedding_map82 0 A5 child1
2 0 A14 lowest_node_id0 0 1 dA16 mesh_offset_data206 0 Z2 72 0 8 0 0 0 0 0 0 0 1
e3 1e-8 0 0 3 1 0 1 1 9 0 10 11 12 0 0 13 14 15 0 0 0 0 0 0 0 0 12 3 72 0 16 0 0
 0 0 0 0 0 1e3 1e-8 0 2 4 1 0 1 1 17 0 18 19 20 0 0 21 22 23 0 0 0 0 0 0 0 0 12
 4 72 0 24 0 0 0 0 0 0 0 1e3 1e-8 0 3 5 1 0 1 1 25 0 26 27 28 0 0 29 30 31 0 0 0
 0 0 0 0 0 12 5 72 0 32 0 0 0 0 0 0 0 1e3 1e-8 0 4 6 1 0 1 1 33 0 34 35 36 0 0 3
7 38 39 0 0 0 0 0 0 0 0 12 6 72 0 40 0 0 0 0 0 0 0 1e3 1e-8 0 5 7 1 0 1 1 41 0 4
2 43 44 0 0 45 46 47 0 0 0 0 0 0 0 0 12 7 583 0 48 0 0 0 0 0 0 0 1e3 1e-8 0 6 0
 1 0 6 1 0 0 49 50 51 0 0 52 53 54 0 0 0 0 0 0 0 0 70 11 CI9 list_type0 0 1 uI10
 notransmit0 0 1 lCCCDCCDI12 finger_index0 0 1 dI12 finger_block1012 0 CZ48 0 4
 T7 0 0 1 20 1 55 55 0 50 255 49 438 0 56 57 0 0 +7.012487 1.9627 34e-6 1 0 0 0
 0 -1 0 30 255 50 463 0 58 59 0 0 +7.012553 1.9627 0 0 1 0 0 29 255 51 200 0 54
 60 0 7.012553 1.962928 34e-6 0 19 9 CCCCCCI5 frame230 0 CA5 owner12 0 Z52 578 0
 7 61 0 62 0 V0 0 16 255 53 229 0 ?63 0 64 65 0 0 7 0 18 255 54 198 0 66 0 67 51
 ?7 0 17 255 66 0 68 69 70 54 71 72 0 73 -0 18 67 195 0 74 54 75 60 ?7 0 17 74 0
 76 77 78 67 79 80 0 81 -0 18 75 188 0 78 67 82 83 ?7 0 29 60 197 0 67 83 51 7.0
12487 1.962928 34e-6 0 29 83 190 0 75 84 60 7.012487 1.962892 34e-6 0 29 84 187
 0 82 85 83 7.012553 1.962892 34e-6 0 18 82 185 0 69 75 86 84 ?7 0 29 85 181 0 8
6 87 84 7.01268 1.96286 34e-6 0 18 86 179 0 88 82 89 85 ?7 0 29 87 178 0 89 90 8
5 7.01264 1.96286 34e-6 0 18 89 176 0 91 86 92 87 ?7 0 29 90 175 0 92 93 87 7.01
268 1.96272 34e-6 0 18 92 173 0 94 89 95 90 ?7 0 29 93 172 0 95 96 90 7.01264 1.
96272 34e-6 0 18 95 170 0 97 92 98 93 ?7 0 29 96 165 0 98 99 93 7.01268 1.9629 3
4e-6 0 18 98 163 0 100 95 101 96 ?7 0 29 99 162 0 101 102 96 7.01264 1.9629 34e-
6 0 18 101 160 0 103 98 104 99 ?7 0 29 102 159 0 104 105 99 7.012553 1.9627 34e-
6 0 18 104 157 0 106 101 107 102 ?7 0 29 105 156 0 107 108 102 7.012487 1.9627 3
4e-6 0 18 107 154 0 109 104 110 105 ?7 0 29 108 153 0 110 111 105 7.012487 1.963
 34e-6 0 18 110 151 0 77 107 112 108 ?7 0 29 111 150 0 112 113 108 7.012553 1.96
3 34e-6 0 18 112 148 0 114 110 115 111 ?7 0 29 113 147 0 115 116 111 7.01264 1.9
63 34e-6 0 18 115 145 0 117 112 118 113 ?7 0 29 116 144 0 118 119 113 7.01268 1.
963 34e-6 0 18 118 142 0 120 115 121 116 ?7 0 29 119 130 0 121 122 116 7.012553
 1.962928 0 0 18 121 128 0 123 118 124 119 ?7 0 29 122 126 0 124 125 119 7.01248
7 1.962928 0 0 18 124 124 0 126 121 127 122 ?7 0 29 125 120 0 127 128 122 7.0124
87 1.962892 0 0 18 127 118 0 129 124 130 125 ?7 0 29 128 117 0 130 131 125 7.012
553 1.962892 0 0 18 130 115 0 132 127 133 128 ?7 0 29 131 111 0 133 134 128 7.01
268 1.96272 0 0 18 133 109 0 135 130 136 131 ?7 0 29 134 108 0 136 137 131 7.012
64 1.96272 0 0 18 136 106 0 138 133 139 134 ?7 0 29 137 105 0 139 140 134 7.0126
4 1.96286 0 0 18 139 103 0 141 136 142 137 ?7 0 29 140 102 0 142 143 137 7.01268
 1.96286 0 0 18 142 100 0 144 139 145 140 ?7 0 29 143 96 0 145 146 140 7.01268 1
.9629 0 0 18 145 94 0 147 142 148 143 ?7 0 29 146 93 0 148 149 143 7.01264 1.962
9 0 0 18 148 91 0 150 145 151 146 ?7 0 29 149 90 0 151 152 146 7.012487 1.963 0
 0 18 151 88 0 153 148 154 149 ?7 0 29 152 87 0 154 155 149 7.012553 1.963 0 0 1
8 154 85 0 156 151 157 152 ?7 0 29 155 84 0 157 158 152 7.01264 1.963 0 0 18 157
 82 0 159 154 160 155 ?7 0 29 158 81 0 160 161 155 7.01268 1.963 0 0 18 160 79 0
 162 157 163 158 ?7 0 29 161 78 0 163 164 158 7.012553 1.9627 0 0 18 163 76 0 16
5 160 166 161 ?7 0 29 164 75 0 166 167 161 7.012487 1.9627 0 0 18 166 73 0 168 1
63 169 164 ?7 0 29 167 46 0 170 171 164 7.0127 1.9627 0 0 18 170 40 0 172 173 0
 167 ?7 0 29 171 47 0 174 175 167 7.0124 1.9627 0 0 18 174 37 0 176 177 178 171
 ?7 0 29 175 48 0 178 179 171 7.0124 1.963 0 0 18 178 38 0 180 174 173 175 ?7 0
 29 179 49 0 173 181 175 7.0127 1.963 0 0 18 173 39 0 182 178 170 179 ?7 0 29 18
1 23 0 177 183 179 7.0127 1.9627 34e-6 0 18 177 10 0 184 185 174 181 ?7 0 29 183
 22 0 169 186 181 7.0124 1.9627 34e-6 0 18 169 19 0 187 166 188 183 ?7 0 29 186
 18 0 188 189 183 7.0124 1.963 34e-6 0 18 188 15 0 190 169 185 186 ?7 0 29 189 1
4 0 185 0 186 7.0127 1.963 34e-6 0 18 185 11 0 191 188 177 189 ?7 0 17 191 0 192
 193 120 185 194 195 0 196 -0 15 255 192 223 0 120 197 0 0 17 193 0 192 198 191
 173 199 200 0 201 +0 17 120 0 192 191 198 118 202 203 0 204 -0 17 194 0 68 100
 196 118 191 195 0 0 +0 16 195 12 0 ?194 205 206 207 208 206 7 0 17 196 0 68 194
 184 185 209 205 0 199 +0 15 68 205 0 66 210 211 0 17 184 0 68 196 106 177 212 2
13 0 214 +0 17 209 0 215 216 199 177 196 205 0 0 -0 16 205 6 0 ?196 217 195 218
 0 0 7 0 17 199 0 215 209 201 185 193 200 0 0 -0 15 215 54 0 201 219 0 0 17 201
 0 215 199 216 173 220 221 0 0 +0 16 200 52 0 ?193 222 223 224 0 0 7 0 16 222 92
 0 ?150 225 200 226 0 0 7 0 16 223 51 0 ?227 200 228 229 0 0 7 0 30 224 68 0 200
 229 230 0 +7.0127 1.963 34e-6 0 0 -1 0 30 229 67 0 223 231 224 0 +7.0124 1.963
 34e-6 0 0 -1 0 30 230 69 0 217 224 232 0 +7.0127 1.9627 34e-6 0 0 -1 0 16 217 5
3 0 ?216 228 205 230 0 0 7 0 30 232 127 0 233 230 234 0 +7.012487 0 0 0 1 0 0 16
 233 125 0 ?235 236 237 232 0 0 7 0 30 234 131 0 236 232 238 0 +7.012553 0 0 0 -
1 0 0 16 236 129 0 ?239 240 233 234 0 0 7 0 30 238 137 0 241 234 242 0 +7.012487
 0 0 0 1 0 0 16 241 135 0 ?243 58 240 238 0 0 7 0 30 242 193 0 244 238 245 0 +7.
012487 0 34e-6 0 1 0 0 16 244 191 0 ?78 80 246 242 0 0 7 0 30 245 212 0 247 242
 248 0 +7.012487 1.9627 34e-6 0 0 -1 0 16 247 210 0 ?249 250 251 245 0 0 7 0 30
 248 216 0 250 245 252 0 +7.012553 1.9627 34e-6 0 0 1 0 16 250 214 0 ?253 254 24
7 248 0 0 7 0 30 252 220 0 254 248 255 0 +7.01264 1.963 34e-6 0 0 1 0 16 254 218
 0 ?256 203 250 252 0 0 7 0 30 255 227 0 64 252 65 0 +7.012553 1.963 34e-6 0 0 -
1 0 16 64 225 0 ?257 53 203 255 0 0 7 0 30 65 231 0 53 255 258 0 +7.012487 1.963
 34e-6 0 0 1 0 30 258 506 0 259 65 260 0 +7.012487 1.962928 34e-6 -1 0 0 0 16 25
9 199 0 ?261 262 80 258 0 0 7 0 30 260 505 0 80 258 263 0 +7.012487 1.962892 34e
-6 0 -1 0 0 16 80 196 0 ?264 259 244 260 0 0 7 0 30 263 504 0 246 260 265 0 +7.0
12553 1.962892 34e-6 1 0 0 0 16 246 189 0 ?266 244 267 263 0 0 7 0 30 265 503 0
 262 263 268 0 +7.012553 1.962892 34e-6 0 1 0 0 16 262 201 0 ?269 72 259 265 0 0
 7 0 30 268 502 0 240 265 270 0 +7.012487 1.962928 0 -1 0 0 0 16 240 132 0 ?271
 241 236 268 0 0 7 0 30 270 500 0 272 268 273 0 +7.012553 1.962892 0 1 0 0 0 16
 272 119 0 ?274 237 275 270 0 0 7 0 30 273 498 0 276 270 277 0 +7.012487 1.96289
2 34e-6 0 0 -1 0 16 276 355 0 ?278 279 280 273 0 0 7 0 30 277 497 0 279 273 281
 0 +7.012487 1.962928 34e-6 0 0 -1 0 16 279 354 0 ?282 283 276 277 0 0 7 0 30 28
1 496 0 283 277 284 0 +7.012553 1.962928 34e-6 0 0 -1 0 16 283 353 0 ?285 286 27
9 281 0 0 7 0 30 284 495 0 280 281 287 0 +7.012553 1.962892 34e-6 0 0 -1 0 16 28
0 356 0 ?288 276 289 284 0 0 7 0 30 287 494 0 290 284 291 0 +7.01264 1.96286 34e
-6 -1 0 0 0 16 290 180 0 ?292 293 294 287 0 0 7 0 30 291 493 0 294 287 295 0 +7.
01264 1.96272 34e-6 0 -1 0 0 16 294 177 0 ?296 290 297 291 0 0 7 0 30 295 492 0
 297 291 298 0 +7.01268 1.96272 34e-6 1 0 0 0 16 297 174 0 ?299 294 300 295 0 0
 7 0 30 298 491 0 293 295 301 0 +7.01268 1.96272 34e-6 0 1 0 0 16 293 182 0 ?302
 267 290 298 0 0 7 0 30 301 490 0 303 298 304 0 +7.01264 1.96286 0 -1 0 0 0 16 3
03 104 0 ?141 305 306 301 0 0 7 0 30 304 489 0 305 301 307 0 +7.01264 1.96272 0
 0 -1 0 0 16 305 107 0 ?138 308 303 304 0 0 7 0 30 307 488 0 308 304 309 0 +7.01
268 1.96272 0 1 0 0 0 16 308 110 0 ?135 310 305 307 0 0 7 0 30 309 487 0 310 307
 311 0 +7.01268 1.96272 0 0 1 0 0 16 310 112 0 ?144 275 308 309 0 0 7 0 30 311 4
86 0 312 309 313 0 +7.01264 1.96272 34e-6 0 0 -1 0 16 312 367 0 ?314 315 316 311
 0 0 7 0 30 313 485 0 315 311 317 0 +7.01264 1.96286 34e-6 0 0 -1 0 16 315 366 0
 ?318 289 312 313 0 0 7 0 30 317 484 0 289 313 319 0 +7.01268 1.96286 34e-6 0 0
 -1 0 16 289 365 0 ?320 280 315 317 0 0 7 0 30 319 483 0 316 317 321 0 +7.01268
 1.96272 34e-6 0 0 -1 0 16 316 368 0 ?322 312 323 319 0 0 7 0 30 321 481 0 324 3
19 325 0 +7.01264 1.9629 34e-6 0 -1 0 0 16 324 166 0 ?326 300 327 321 0 0 7 0 30
 325 480 0 327 321 328 0 +7.01268 1.9629 34e-6 1 0 0 0 16 327 164 0 ?329 324 58
 325 0 0 7 0 30 328 479 0 300 325 226 0 +7.01268 1.9629 34e-6 0 1 0 0 16 300 167
 0 ?204 297 324 328 0 0 7 0 30 226 477 0 222 328 330 0 +7.01264 1.9629 0 0 -1 0
 0 30 330 476 0 225 226 331 0 +7.01268 1.9629 0 1 0 0 0 16 225 95 0 ?147 306 222
 330 0 0 7 0 30 331 475 0 306 330 332 0 +7.01268 1.9629 0 0 1 0 0 16 306 97 0 ?1
62 303 225 331 0 0 7 0 30 332 474 0 323 331 333 0 +7.01264 1.9629 34e-6 0 0 -1 0
 16 323 379 0 ?334 316 335 332 0 0 7 0 30 333 472 0 203 332 336 0 +7.01268 1.963
 34e-6 0 0 -1 0 16 203 222 0 ?337 64 254 333 0 0 7 0 30 336 471 0 335 333 338 0
 +7.01268 1.9629 34e-6 0 0 -1 0 16 335 380 0 ?339 323 0 336 0 0 7 0 30 338 469 0
 251 336 340 0 +7.012487 1.9627 34e-6 0 -1 0 0 16 251 207 0 ?341 247 72 338 0 0
 7 0 30 340 467 0 72 338 59 0 +7.012553 1.9627 34e-6 0 1 0 0 16 72 204 0 ?342 25
1 262 340 267 267 7 0 30 59 465 0 237 340 50 0 +7.012487 1.9627 0 0 -1 0 0 16 23
7 121 0 ?168 233 272 59 0 0 7 0 17 168 0 343 344 129 166 345 237 0 249 +0 15 343
 136 0 126 346 0 0 17 344 0 343 347 168 174 348 349 0 0 -0 17 129 0 343 168 126
 127 350 233 0 278 -0 17 345 0 351 274 352 127 353 237 0 354 -0 17 249 0 355 356
 357 166 109 247 0 352 +0 15 355 60 0 356 358 0 0 17 356 0 355 253 249 163 352 3
59 0 0 +0 17 357 0 355 249 253 107 360 361 0 362 -0 17 109 0 363 364 348 107 365
 247 0 366 -0 17 352 0 351 345 367 166 356 359 0 348 -0 15 351 122 0 345 368 0 0
 17 367 0 351 352 274 163 369 275 0 370 -0 16 359 74 0 ?356 349 286 371 349 286
 7 0 17 348 0 363 109 372 166 344 349 0 0 +0 15 363 211 0 109 373 0 0 17 372 0 3
63 348 364 174 374 228 0 344 +0 16 349 36 0 ?348 375 359 371 286 359 7 0 16 375
 35 0 ?176 376 349 377 0 0 7 0 30 371 43 0 349 377 378 0 +7.0127 1.9627 0 1 0 0
 0 16 286 77 0 ?172 359 283 371 359 349 7 0 17 172 0 379 214 165 170 370 286 0 2
16 +0 15 379 215 0 165 380 0 0 17 214 0 379 212 172 177 216 217 0 209 -0 17 165
 0 379 172 212 163 381 250 0 367 -0 17 370 0 382 132 220 163 172 286 0 356 -0 17
 216 0 215 201 209 170 214 217 0 220 +0 17 220 0 382 370 182 170 201 221 0 0 -0
 15 382 32 0 123 383 0 0 17 182 0 382 220 162 173 198 384 0 193 -0 16 221 33 0 ?
201 213 384 378 0 0 7 0 16 213 158 0 ?184 361 221 385 361 386 7 0 16 384 34 0 ?1
98 221 387 388 376 387 7 0 30 378 42 0 221 371 231 0 +7.0127 1.9627 0 0 1 0 0 30
 231 66 0 228 378 229 0 +7.0124 1.9627 34e-6 0 0 -1 0 16 228 50 0 ?372 223 217 2
31 0 0 7 0 17 198 0 192 120 193 160 182 384 0 0 +0 16 387 80 0 ?389 384 390 388
 384 390 7 0 30 388 45 0 384 218 377 0 +7.0124 1.963 0 -1 0 0 0 16 376 89 0 ?180
 391 375 388 391 384 7 0 17 180 0 392 393 153 178 394 376 0 227 +0 16 391 86 0 ?
395 390 376 388 390 376 7 0 17 395 0 396 63 257 151 397 391 0 0 +0 16 390 83 0 ?
398 387 391 388 387 391 7 0 17 398 0 399 114 159 154 400 390 0 0 +0 15 399 226 0
 114 401 0 0 17 114 0 399 402 398 112 403 64 0 342 -0 17 159 0 399 398 402 157 4
04 254 0 405 -0 17 400 0 382 150 156 157 398 390 0 389 -0 17 150 0 382 147 400 1
48 405 222 0 334 +0 17 156 0 382 400 123 154 406 58 0 257 +0 17 389 0 407 256 33
7 157 408 387 0 0 +0 15 407 56 0 409 410 0 0 17 256 0 407 409 389 115 159 254 0
 402 +0 17 337 0 407 389 409 160 120 203 0 408 +0 17 408 0 411 412 405 160 389 3
87 0 198 -0 15 411 98 0 412 413 0 0 17 412 0 411 414 408 145 415 306 0 0 -0 17 4
05 0 411 408 414 157 416 222 0 400 -0 17 414 0 411 405 412 148 417 225 0 0 -0 17
 416 0 418 419 404 148 150 222 0 0 +0 15 418 339 0 416 420 0 0 17 419 0 418 421
 416 101 334 323 0 326 -0 17 404 0 418 416 421 157 256 254 0 0 -0 17 421 0 418 4
04 419 115 326 324 0 0 -0 17 326 0 422 329 423 101 117 324 0 0 +0 15 422 7 0 329
 424 0 0 17 329 0 422 204 326 98 103 327 0 0 +0 17 423 0 422 326 204 115 409 206
 0 0 +0 17 117 0 68 70 103 115 421 324 0 256 -0 17 70 0 68 66 117 112 402 425 0
 0 +0 17 103 0 68 117 100 101 426 327 0 419 -0 17 100 0 68 103 194 98 427 300 0
 428 -0 17 426 0 429 334 428 101 329 327 0 0 -0 15 429 342 0 417 430 0 0 17 334
 0 429 417 426 148 419 323 0 414 +0 17 428 0 429 426 417 98 339 335 0 329 -0 17
 417 0 429 428 334 145 147 225 0 0 +0 17 339 0 431 415 427 145 428 335 0 412 +0
 15 431 333 0 415 432 0 0 17 415 0 431 202 339 160 162 306 0 0 +0 17 427 0 431 3
39 202 98 204 300 0 0 -0 17 202 0 431 427 415 118 337 203 0 0 -0 17 204 0 422 42
3 329 118 100 300 0 409 +0 17 409 0 407 337 256 118 423 206 0 194 -0 16 206 143
 0 ?423 195 425 207 195 425 7 0 16 425 146 0 ?70 206 433 207 206 433 7 0 30 207
 13 0 195 0 434 0 +7.0124 1.963 34e-6 -1 0 0 0 30 434 17 0 435 207 385 0 +7.0124
 1.9627 34e-6 0 -1 0 0 16 435 16 0 ?187 208 386 434 0 0 7 0 30 385 21 0 386 434
 218 0 +7.0127 1.9627 34e-6 1 0 0 0 16 386 20 0 ?362 435 361 385 213 361 7 0 30
 218 24 0 205 385 388 0 +7.0127 1.9627 34e-6 0 1 0 0 17 362 0 76 78 187 107 364
 386 0 0 +0 16 361 155 0 ?360 386 213 385 386 213 7 0 17 360 0 436 437 366 104 3
57 361 0 0 +0 15 436 192 0 366 438 0 0 17 437 0 436 439 360 82 106 267 0 0 +0 17
 366 0 436 360 439 107 440 244 0 357 -0 17 439 0 436 366 437 75 266 246 0 0 -0 1
7 440 0 441 278 365 75 78 244 0 0 +0 15 441 302 0 440 442 0 0 17 278 0 441 353 4
40 127 443 276 0 345 +0 17 365 0 441 440 353 107 249 247 0 0 -0 17 78 0 76 74 36
2 75 366 244 0 443 +0 15 76 208 0 77 444 0 0 17 443 0 445 79 350 75 278 276 0 26
4 -0 15 445 275 0 350 446 0 0 17 79 0 445 282 443 67 264 80 0 0 -0 17 350 0 445
 443 282 127 235 233 0 0 -0 17 264 0 447 266 261 75 74 80 0 439 +0 15 447 168 0
 266 448 0 0 17 266 0 447 269 264 82 439 246 0 437 +0 17 261 0 447 264 269 67 44
9 259 0 0 +0 17 269 0 447 261 266 54 69 262 0 449 +0 17 449 0 450 342 341 54 261
 259 0 0 -0 15 450 202 0 451 452 0 0 17 342 0 450 451 449 112 66 72 0 453 +0 17
 341 0 450 449 451 67 77 251 0 261 +0 17 451 0 450 341 342 110 453 433 0 0 +0 17
 77 0 76 190 74 110 454 251 0 63 -0 17 190 0 76 187 77 188 455 208 0 393 +0 17 4
54 0 456 457 81 110 341 251 0 0 -0 17 63 0 396 453 395 110 153 53 0 455 +0 15 39
6 219 0 395 458 0 0 17 453 0 396 257 63 112 451 433 0 70 -0 17 153 0 392 180 455
 151 457 53 0 243 -0 17 455 0 392 153 393 110 190 208 0 451 -0 15 392 230 0 153
 459 0 0 17 393 0 392 455 180 188 227 223 0 460 -0 16 208 152 0 ?190 433 435 207
 433 195 7 0 16 433 149 0 ?451 425 208 207 425 208 7 0 17 227 0 461 176 460 178
 393 223 0 347 +0 17 460 0 461 227 374 188 187 435 0 0 -0 15 461 58 0 176 462 0
 0 17 374 0 461 460 176 169 372 228 0 364 -0 17 187 0 76 362 190 169 460 435 0 3
74 +0 17 176 0 461 374 227 174 347 375 0 372 +0 17 364 0 363 372 109 169 362 386
 0 0 -0 17 347 0 343 394 344 178 176 375 0 0 -0 17 394 0 343 126 347 151 180 376
 0 395 -0 17 126 0 343 129 394 124 463 241 0 282 -0 17 463 0 456 81 457 124 243
 241 0 0 -0 17 282 0 445 350 79 124 81 279 0 271 +0 17 81 0 456 454 463 67 282 2
79 0 341 -0 17 271 0 464 243 406 124 465 240 0 235 +0 15 464 140 0 406 466 0 0 1
7 243 0 464 397 271 151 126 241 0 394 +0 17 406 0 464 271 397 121 467 58 0 465 -
0 17 465 0 468 239 235 121 271 240 0 0 -0 17 235 0 468 465 354 124 129 233 0 0 +
0 15 468 133 0 465 469 0 0 17 354 0 468 235 239 127 274 272 0 0 -0 17 239 0 468
 354 465 130 123 236 0 274 +0 17 274 0 351 367 345 130 354 272 0 0 +0 17 123 0 3
82 156 132 121 470 236 0 285 -0 17 132 0 382 123 370 130 367 275 0 288 +0 17 470
 0 471 73 288 121 239 236 0 0 -0 17 285 0 472 467 71 121 73 283 0 406 +0 15 472
 287 0 71 473 0 0 17 467 0 472 403 285 154 156 58 0 0 +0 17 71 0 472 285 403 54
 342 72 0 0 -0 17 73 0 471 474 470 54 285 283 0 269 -0 15 471 272 0 470 475 0 0
 17 474 0 471 288 73 82 269 262 0 0 -0 17 288 0 471 470 474 130 476 280 0 239 +0
 17 476 0 477 478 369 82 288 280 0 266 -0 15 477 299 0 369 479 0 0 17 478 0 477
 381 476 104 437 267 0 0 -0 17 369 0 477 476 381 130 132 275 0 0 +0 17 381 0 477
 369 478 163 253 250 0 0 -0 16 275 116 0 ?132 272 310 50 58 58 7 0 16 58 139 0 ?
156 327 241 50 275 275 7 0 17 253 0 355 357 356 104 165 250 0 212 +0 17 212 0 37
9 165 214 104 184 213 0 360 -0 16 267 186 0 ?437 246 293 340 72 72 7 0 14 255 47
9 297 0 ?473 475 477 480 57 -473 473 473 475 481 0 14 473 285 0 ?469 479 472 480
 57 -479 479 0 479 481 0 14 475 270 0 ?479 358 471 480 482 -0 0 479 483 481 0 13
 255 480 552 0 0 0 368 0 0 484 0 0 50 57 440 0 473 485 49 0 +7.012553 1.9627 34e
-6 -1 0 0 0 0 1 0 13 481 546 0 0 0 380 0 0 486 432 0 14 380 217 0 ?219 0 379 481
 487 -373 358 219 413 62 0 19 486 71 488 7 489 490 481 0 S0 0 14 432 331 0 ?430
 410 431 491 492 -0 0 430 0 481 0 14 430 340 0 ?420 432 429 491 485 -0 0 420 432
 481 0 14 410 57 0 ?432 413 407 491 493 -459 458 413 466 62 0 13 491 541 0 0 0 4
13 0 0 489 0 0 50 492 446 0 432 494 495 0 +7.01268 1.9629 34e-6 -1 0 0 0 0 1 0 5
0 494 449 0 483 496 492 0 +7.01268 1.96272 34e-6 0 1 0 0 0 1 0 50 495 444 0 420
 492 485 0 +7.01264 1.9629 34e-6 1 0 0 0 0 -1 0 14 420 337 0 ?424 430 418 491 49
5 -0 0 497 430 481 0 50 485 443 0 430 495 57 0 +7.01268 1.9629 34e-6 0 1 0 0 0 1
 0 14 424 169 0 ?0 420 422 491 498 +438 499 499 444 62 0 14 497 311 0 ?500 483 5
01 502 503 -0 0 504 420 481 0 14 500 317 0 ?504 497 505 502 496 -0 0 483 504 481
 0 14 483 320 0 ?497 506 507 502 494 -0 0 475 500 481 0 15 501 313 0 508 497 0 0
 13 502 547 0 0 0 506 0 0 490 0 0 50 503 452 0 497 509 510 0 +7.01268 1.96272 34
e-6 -1 0 0 0 0 1 0 14 504 314 0 ?499 500 511 502 510 -0 0 500 497 481 0 14 499 1
84 0 ?0 504 512 502 498 +424 210 438 424 62 0 15 511 316 0 513 504 0 0 50 510 45
1 0 504 503 496 0 +7.01264 1.96286 34e-6 0 -1 0 0 0 -1 0 50 496 450 0 500 510 49
4 0 +7.01264 1.96272 34e-6 1 0 0 0 0 -1 0 17 513 0 511 514 320 139 141 303 0 0 +
0 17 514 0 511 515 513 89 318 315 0 292 -0 17 320 0 511 513 515 142 516 289 0 51
7 +0 17 141 0 518 138 144 139 517 303 0 318 +0 15 518 101 0 135 383 382 0 17 138
 0 518 135 141 136 519 305 0 314 +0 17 144 0 518 141 135 142 520 310 0 320 +0 17
 517 0 521 520 519 142 513 303 0 0 -0 17 318 0 505 522 523 139 514 315 0 519 +0
 15 505 319 0 522 500 0 0 17 522 0 505 524 318 136 138 305 0 0 +0 17 523 0 505 3
18 524 89 296 294 0 0 -0 17 519 0 521 517 525 139 522 305 0 0 -0 15 521 113 0 52
0 506 0 0 17 525 0 521 519 520 136 526 308 0 0 -0 17 520 0 521 525 517 133 508 3
10 0 0 -0 17 526 0 507 527 314 133 135 308 0 0 +0 15 507 322 0 526 483 0 0 17 52
7 0 507 528 526 92 322 316 0 299 -0 17 314 0 507 526 528 136 524 312 0 525 +0 17
 135 0 518 144 138 133 525 308 0 322 +0 17 322 0 501 508 529 133 527 316 0 520 +
0 17 508 0 501 516 322 142 144 310 0 0 +0 17 529 0 501 322 516 92 302 293 0 0 -0
 17 516 0 501 529 508 86 320 289 0 302 -0 17 302 0 512 292 299 86 94 293 0 0 +0
 15 512 171 0 299 499 0 0 17 292 0 512 296 302 89 88 290 0 0 +0 17 299 0 512 302
 296 92 97 297 0 0 +0 17 94 0 211 97 88 92 529 293 0 527 -0 15 211 183 0 94 210
 0 0 17 97 0 211 91 94 95 528 297 0 524 -0 17 88 0 211 94 91 86 515 290 0 516 -0
 17 91 0 211 88 97 89 523 294 0 514 -0 17 515 0 511 320 514 86 292 290 0 0 -0 17
 528 0 507 314 527 95 299 297 0 0 -0 17 524 0 505 523 522 95 314 312 0 296 -0 17
 296 0 512 299 292 95 91 294 0 0 +0 14 210 194 0 ?0 383 68 481 498 +499 448 506
 383 62 0 14 383 31 0 ?210 401 518 481 530 -466 413 210 401 62 0 50 498 25 0 438
 0 530 0 +0 0 34e-6 0 0 1 1 0 0 0 14 448 203 0 ?452 438 447 480 498 +210 444 452
 438 62 0 14 506 114 0 ?483 0 521 502 530 -413 368 358 210 62 0 13 62 563 0 0 0
 0 0 0 52 458 0 14 458 221 0 ?438 466 396 480 493 -410 197 466 0 62 0 14 438 2 0
 ?448 458 436 480 498 +452 424 448 499 62 0 14 466 141 0 ?458 56 464 480 530 -34
6 383 410 458 62 0 50 493 63 0 410 531 532 0 +7.0124 1.963 34e-6 0 -1 0 0 0 -1 0
 14 197 224 0 ?401 219 192 481 493 -458 401 401 219 62 0 14 401 228 0 ?383 197 3
99 481 493 -197 459 383 197 62 0 14 219 55 0 ?197 380 215 481 531 -0 0 197 380 6
2 0 50 531 62 0 219 530 493 0 +7.0127 1.9627 34e-6 -1 0 0 0 0 1 0 50 530 41 0 38
3 498 531 0 +0 0 0 0 0 1 1 0 0 0 14 459 232 0 ?462 0 392 533 493 -401 410 462 46
9 62 0 14 462 59 0 ?373 459 461 533 532 -0 0 373 459 62 0 13 533 561 0 0 0 459 0
 0 61 446 0 14 469 134 0 ?446 473 468 480 530 -368 346 459 368 62 0 14 446 273 0
 ?442 469 445 480 509 -0 0 442 0 533 0 14 368 123 0 ?358 0 351 480 530 -506 469
 469 358 62 0 14 346 138 0 ?444 373 343 533 530 -469 466 444 373 62 0 14 444 206
 0 ?0 346 76 533 498 +448 452 424 346 62 0 14 373 213 0 ?346 462 363 533 487 -35
8 380 346 462 62 0 50 487 65 0 358 532 482 0 +7.0127 1.9627 34e-6 0 1 0 0 0 1 0
 14 358 61 0 ?475 368 355 480 487 -380 373 368 506 62 0 50 532 64 0 462 493 487
 0 +7.0124 1.9627 34e-6 1 0 0 0 0 -1 0 50 482 456 0 475 487 509 0 +7.012553 1.96
2892 34e-6 -1 0 0 0 0 1 0 50 509 455 0 446 482 503 0 +7.012487 1.962892 34e-6 1
 0 0 0 0 -1 0 14 452 209 0 ?0 448 450 480 498 +444 438 0 448 62 0 14 442 300 0 ?
56 446 441 480 49 -56 56 56 446 533 0 14 56 282 0 ?466 442 456 480 49 -442 442 0
 442 533 0 15 456 284 0 81 56 0 0 19 61 577 534 7 490 52 533 0 S0 0 81 255 1 534
 582 535 61 0 0 0 488 536 0 19 490 576 0 7 486 61 502 0 V0 0 80 7 CCCCCDI12 lega
l_owners0 17 1 lCZ1 535 537 538 9000 2 2 2 2 3 5 0 0 0 FFTFFFFFFFFFTFFFF2 0 81 1
 488 583 535 486 0 0 534 0 539 0 83 255 1 536 .2 0 83 1 539 .2 0 79 255 5 538 ka
ppa0 14 413 99 0 ?410 0 411 491 530 -383 506 380 410 62 0 19 489 574 0 7 484 486
 491 0 V0 0 19 484 260 0 7 0 489 480 0 V0 0 17 403 0 472 71 467 112 257 64 0 0 -
0 17 257 0 396 395 453 154 114 64 0 397 +0 17 397 0 464 406 243 154 395 391 0 39
8 -0 17 457 0 456 463 454 151 63 53 0 0 -0 17 69 0 68 106 66 82 474 262 0 476 -0
 17 106 0 68 184 69 104 478 267 0 253 -0 17 353 0 441 365 278 166 168 237 0 0 +0
 17 162 0 382 182 147 160 412 306 0 337 +0 17 147 0 382 162 150 145 414 225 0 33
9 +0 17 402 0 399 159 114 115 70 425 0 423 -0 30 377 44 0 375 388 371 0 +7.0124
 1.9627 0 0 -1 0 0 74 4 CI16 index_map_offset0 0 1 dCCZ20 55 1 0 0 488 0 0 0 0 0
 0 0 0 0 0 0 0 0 0 0 0 0 0 0 0 70 40 0 4 T6 0 0 1 20 1 540 540 0 13 41 70 0 6 0
 541 0 0 542 0 0 50 42 65 0 543 544 0 0 +7.012553 1.9627 34e-6 0 1 0 0 0 1 0 30
 43 69 0 545 546 0 0 +7.012553 1.9627 34e-6 0 0 -1 0 29 44 46 0 547 548 0 7.0125
53 1.9627 0 0 19 45 5 0 6 542 0 549 0 V0 0 16 46 52 0 ?550 0 551 546 0 0 6 0 18
 47 19 0 552 0 553 554 ?6 0 17 552 0 555 556 557 47 558 559 0 560 +0 18 553 15 0
 557 47 561 562 ?6 0 29 554 22 0 47 562 563 7.012487 1.9627 34e-6 0 29 562 18 0
 553 564 554 7.012487 1.963 34e-6 0 29 563 23 0 565 554 566 7.012553 1.9627 34e-
6 0 18 565 10 0 556 561 567 563 ?6 0 29 566 49 0 568 563 569 7.012553 1.963 0 0
 18 568 39 0 570 571 547 566 ?6 0 29 569 48 0 571 566 548 7.012487 1.963 0 0 18
 571 38 0 572 567 568 569 ?6 0 29 548 47 0 567 569 44 7.012487 1.9627 0 0 18 567
 37 0 573 565 571 548 ?6 0 17 573 0 574 560 575 567 576 577 0 578 +0 15 574 58 0
 573 579 0 0 17 560 0 574 558 573 47 578 580 0 581 -0 17 575 0 574 573 558 571 5
82 551 0 576 +0 17 576 0 583 570 584 571 573 577 0 0 -0 16 577 35 0 ?573 585 586
 587 0 0 6 0 17 578 0 588 589 581 567 560 580 0 584 +0 15 588 60 0 589 543 0 0 1
7 589 0 588 590 578 547 584 586 0 591 +0 17 581 0 588 578 590 47 556 592 0 0 -0
 16 580 50 0 ?578 551 545 593 0 0 6 0 17 584 0 583 576 594 567 589 586 0 0 -0 15
 583 32 0 594 595 0 0 17 594 0 583 584 570 547 596 597 0 0 -0 16 586 36 0 ?589 5
77 0 598 0 0 6 0 30 598 43 0 586 587 599 0 +7.012553 1.9627 0 1 0 0 0 30 587 44
 0 577 600 598 0 +7.012487 1.9627 0 0 -1 0 0 30 599 42 0 597 598 593 0 +7.012553
 1.9627 0 0 1 0 0 16 597 33 0 ?596 592 585 599 0 0 6 0 30 593 66 0 580 599 601 0
 +7.012487 1.9627 34e-6 0 0 -1 0 30 601 67 0 551 593 546 0 +7.012487 1.963 34e-6
 0 0 -1 0 16 551 51 0 ?575 46 580 601 0 0 6 0 30 546 68 0 46 601 43 0 +7.012553
 1.963 34e-6 0 0 -1 0 17 596 0 602 603 591 568 594 597 0 0 +0 16 592 20 0 ?556 5
59 597 604 0 0 6 0 16 585 34 0 ?572 597 577 600 0 0 6 0 17 572 0 605 582 550 571
 570 585 0 575 +0 30 600 45 0 585 606 587 0 +7.012487 1.963 0 -1 0 0 0 30 606 24
 0 607 604 600 0 +7.012553 1.9627 34e-6 0 1 0 0 16 607 6 0 ?608 545 609 606 0 0
 6 0 30 604 21 0 592 610 606 0 +7.012553 1.9627 34e-6 1 0 0 0 30 610 17 0 559 61
1 604 0 +7.012487 1.9627 34e-6 0 -1 0 0 16 559 16 0 ?552 609 592 610 0 0 6 0 30
 611 13 0 609 0 610 0 +7.012487 1.963 34e-6 -1 0 0 0 16 609 12 0 ?557 607 559 61
1 0 0 6 0 17 557 0 555 552 608 553 612 609 0 582 +0 15 555 7 0 608 613 0 0 17 60
8 0 555 557 556 561 614 607 0 603 +0 17 612 0 605 550 582 561 557 609 0 608 -0 1
7 582 0 605 612 572 553 575 551 0 558 -0 15 605 56 0 572 615 0 0 17 558 0 574 57
5 560 553 552 559 0 0 -0 14 615 57 0 ?579 541 605 41 616 -0 0 579 541 549 0 14 5
79 59 0 ?543 615 574 41 544 -0 0 543 615 549 0 14 541 55 0 ?615 0 602 41 617 -0
 0 615 0 549 0 50 616 63 0 615 617 544 0 +7.012487 1.963 34e-6 0 -1 0 0 0 -1 0 1
3 549 3 0 0 0 0 0 0 45 541 0 50 617 62 0 541 618 616 0 +7.012553 1.9627 34e-6 -1
 0 0 0 0 1 0 50 544 64 0 579 616 42 0 +7.012487 1.9627 34e-6 1 0 0 0 0 -1 0 50 6
18 41 0 595 619 617 0 +0 0 0 0 0 1 1 0 0 0 14 595 31 0 ?0 613 583 41 618 -0 0 0
 613 549 0 50 619 25 0 613 0 618 0 +0 0 34e-6 0 0 1 1 0 0 0 14 613 2 0 ?595 543
 555 41 619 +0 0 595 543 549 0 14 543 61 0 ?613 579 588 41 42 -0 0 613 579 549 0
 15 602 54 0 596 541 0 0 17 550 0 605 572 612 568 603 46 0 596 +0 18 561 11 0 61
2 553 565 564 ?6 0 29 564 14 0 561 0 562 7.012553 1.963 34e-6 0 17 603 0 602 614
 596 561 550 46 0 0 -0 17 614 0 602 591 603 565 608 607 0 0 -0 17 591 0 602 596
 614 547 590 545 0 594 +0 18 547 40 0 589 568 0 44 ?6 0 17 590 0 588 581 589 565
 591 545 0 614 -0 16 545 53 0 ?591 580 607 43 0 0 6 0 17 556 0 555 608 552 565 5
81 592 0 590 +0 17 570 0 583 594 576 568 572 585 0 550 -0 19 542 71 620 6 0 45 4
1 0 S0 0 81 1 620 72 535 542 0 0 0 0 621 0 83 1 621 1 0 74 20 540 1 0 0 620 0 0
 0 0 0 0 0 0 0 0 0 0 0 0 0 0 0 0 0 0 70 32 0 4 T5 0 0 1 20 1 622 622 0 13 33 70
 0 5 0 623 0 0 624 0 0 50 34 65 0 625 626 0 0 +7.012553 1.9627 34e-6 0 1 0 0 0 1
 0 30 35 69 0 627 628 0 0 +7.012553 1.9627 34e-6 0 0 -1 0 29 36 46 0 629 630 0 7
.012553 1.9627 0 0 19 37 5 0 5 624 0 631 0 V0 0 16 38 52 0 ?632 0 633 628 0 0 5
 0 18 39 19 0 634 0 635 636 ?5 0 17 634 0 637 638 639 39 640 641 0 642 +0 18 635
 15 0 639 39 643 644 ?5 0 29 636 22 0 39 644 645 7.012487 1.9627 34e-6 0 29 644
 18 0 635 646 636 7.012487 1.963 34e-6 0 29 645 23 0 647 636 648 7.012553 1.9627
 34e-6 0 18 647 10 0 638 643 649 645 ?5 0 29 648 49 0 650 645 651 7.012553 1.963
 0 0 18 650 39 0 652 653 629 648 ?5 0 29 651 48 0 653 648 630 7.012487 1.963 0 0
 18 653 38 0 654 649 650 651 ?5 0 29 630 47 0 649 651 36 7.012487 1.9627 0 0 18
 649 37 0 655 647 653 630 ?5 0 17 655 0 656 642 657 649 658 659 0 660 +0 15 656
 58 0 655 661 0 0 17 642 0 656 640 655 39 660 662 0 663 -0 17 657 0 656 655 640
 653 664 633 0 658 +0 17 658 0 665 652 666 653 655 659 0 0 -0 16 659 35 0 ?655 6
67 668 669 0 0 5 0 17 660 0 670 671 663 649 642 662 0 666 +0 15 670 60 0 671 625
 0 0 17 671 0 670 672 660 629 666 668 0 673 +0 17 663 0 670 660 672 39 638 674 0
 0 -0 16 662 50 0 ?660 633 627 675 0 0 5 0 17 666 0 665 658 676 649 671 668 0 0
 -0 15 665 32 0 676 677 0 0 17 676 0 665 666 652 629 678 679 0 0 -0 16 668 36 0
 ?671 659 0 680 0 0 5 0 30 680 43 0 668 669 681 0 +7.012553 1.9627 0 1 0 0 0 30
 669 44 0 659 682 680 0 +7.012487 1.9627 0 0 -1 0 0 30 681 42 0 679 680 675 0 +7
.012553 1.9627 0 0 1 0 0 16 679 33 0 ?678 674 667 681 0 0 5 0 30 675 66 0 662 68
1 683 0 +7.012487 1.9627 34e-6 0 0 -1 0 30 683 67 0 633 675 628 0 +7.012487 1.96
3 34e-6 0 0 -1 0 16 633 51 0 ?657 38 662 683 0 0 5 0 30 628 68 0 38 683 35 0 +7.
012553 1.963 34e-6 0 0 -1 0 17 678 0 684 685 673 650 676 679 0 0 +0 16 674 20 0
 ?638 641 679 686 0 0 5 0 16 667 34 0 ?654 679 659 682 0 0 5 0 17 654 0 687 664
 632 653 652 667 0 657 +0 30 682 45 0 667 688 669 0 +7.012487 1.963 0 -1 0 0 0 3
0 688 24 0 689 686 682 0 +7.012553 1.9627 34e-6 0 1 0 0 16 689 6 0 ?690 627 691
 688 0 0 5 0 30 686 21 0 674 692 688 0 +7.012553 1.9627 34e-6 1 0 0 0 30 692 17
 0 641 693 686 0 +7.012487 1.9627 34e-6 0 -1 0 0 16 641 16 0 ?634 691 674 692 0
 0 5 0 30 693 13 0 691 0 692 0 +7.012487 1.963 34e-6 -1 0 0 0 16 691 12 0 ?639 6
89 641 693 0 0 5 0 17 639 0 637 634 690 635 694 691 0 664 +0 15 637 7 0 690 695
 0 0 17 690 0 637 639 638 643 696 689 0 685 +0 17 694 0 687 632 664 643 639 691
 0 690 -0 17 664 0 687 694 654 635 657 633 0 640 -0 15 687 56 0 654 697 0 0 17 6
40 0 656 657 642 635 634 641 0 0 -0 14 697 57 0 ?661 623 687 33 698 -0 0 661 623
 631 0 14 661 59 0 ?625 697 656 33 626 -0 0 625 697 631 0 14 623 55 0 ?697 0 684
 33 699 -0 0 697 0 631 0 50 698 63 0 697 699 626 0 +7.012487 1.963 34e-6 0 -1 0
 0 0 -1 0 13 631 3 0 0 0 0 0 0 37 623 0 50 699 62 0 623 700 698 0 +7.012553 1.96
27 34e-6 -1 0 0 0 0 1 0 50 626 64 0 661 698 34 0 +7.012487 1.9627 34e-6 1 0 0 0
 0 -1 0 50 700 41 0 677 701 699 0 +0 0 0 0 0 1 1 0 0 0 14 677 31 0 ?0 695 665 33
 700 -0 0 0 695 631 0 50 701 25 0 695 0 700 0 +0 0 34e-6 0 0 1 1 0 0 0 14 695 2
 0 ?677 625 637 33 701 +0 0 677 625 631 0 14 625 61 0 ?695 661 670 33 34 -0 0 69
5 661 631 0 15 684 54 0 678 623 0 0 17 632 0 687 654 694 650 685 38 0 678 +0 18
 643 11 0 694 635 647 646 ?5 0 29 646 14 0 643 0 644 7.012553 1.963 34e-6 0 17 6
85 0 684 696 678 643 632 38 0 0 -0 17 696 0 684 673 685 647 690 689 0 0 -0 17 67
3 0 684 678 696 629 672 627 0 676 +0 18 629 40 0 671 650 0 36 ?5 0 17 672 0 670
 663 671 647 673 627 0 696 -0 16 627 53 0 ?673 662 689 35 0 0 5 0 17 638 0 637 6
90 634 647 663 674 0 672 +0 17 652 0 665 676 658 650 654 667 0 632 -0 19 624 71
 702 5 0 37 33 0 S0 0 81 1 702 72 535 624 0 0 0 0 703 0 83 1 703 1 0 74 20 622 1
 0 0 702 0 0 0 0 0 0 0 0 0 0 0 0 0 0 0 0 0 0 0 0 70 24 0 4 T4 0 0 1 20 1 704 704
 0 13 25 70 0 4 0 705 0 0 706 0 0 50 26 65 0 707 708 0 0 +7.01268 1.9629 34e-6 0
 1 0 0 0 1 0 30 27 69 0 709 710 0 0 +7.01268 1.9629 34e-6 0 0 -1 0 29 28 46 0 71
1 712 0 7.01268 1.9629 0 0 19 29 5 0 4 706 0 713 0 V0 0 16 30 52 0 ?714 0 715 71
0 0 0 4 0 18 31 19 0 716 0 717 718 ?4 0 17 716 0 719 720 721 31 722 723 0 724 +0
 18 717 15 0 721 31 725 726 ?4 0 29 718 22 0 31 726 727 7.01264 1.9629 34e-6 0 2
9 726 18 0 717 728 718 7.01264 1.963 34e-6 0 29 727 23 0 729 718 730 7.01268 1.9
629 34e-6 0 18 729 10 0 720 725 731 727 ?4 0 29 730 49 0 732 727 733 7.01268 1.9
63 0 0 18 732 39 0 734 735 711 730 ?4 0 29 733 48 0 735 730 712 7.01264 1.963 0
 0 18 735 38 0 736 731 732 733 ?4 0 29 712 47 0 731 733 28 7.01264 1.9629 0 0 18
 731 37 0 737 729 735 712 ?4 0 17 737 0 738 724 739 731 740 741 0 742 +0 15 738
 58 0 737 743 0 0 17 724 0 738 722 737 31 742 744 0 745 -0 17 739 0 738 737 722
 735 746 715 0 740 +0 17 740 0 747 734 748 735 737 741 0 0 -0 16 741 35 0 ?737 7
49 750 751 0 0 4 0 17 742 0 752 753 745 731 724 744 0 748 +0 15 752 60 0 753 707
 0 0 17 753 0 752 754 742 711 748 750 0 755 +0 17 745 0 752 742 754 31 720 756 0
 0 -0 16 744 50 0 ?742 715 709 757 0 0 4 0 17 748 0 747 740 758 731 753 750 0 0
 -0 15 747 32 0 758 759 0 0 17 758 0 747 748 734 711 760 761 0 0 -0 16 750 36 0
 ?753 741 0 762 0 0 4 0 30 762 43 0 750 751 763 0 +7.01268 1.9629 0 1 0 0 0 30 7
51 44 0 741 764 762 0 +7.01264 1.9629 0 0 -1 0 0 30 763 42 0 761 762 757 0 +7.01
268 1.9629 0 0 1 0 0 16 761 33 0 ?760 756 749 763 0 0 4 0 30 757 66 0 744 763 76
5 0 +7.01264 1.9629 34e-6 0 0 -1 0 30 765 67 0 715 757 710 0 +7.01264 1.963 34e-
6 0 0 -1 0 16 715 51 0 ?739 30 744 765 0 0 4 0 30 710 68 0 30 765 27 0 +7.01268
 1.963 34e-6 0 0 -1 0 17 760 0 766 767 755 732 758 761 0 0 +0 16 756 20 0 ?720 7
23 761 768 0 0 4 0 16 749 34 0 ?736 761 741 764 0 0 4 0 17 736 0 769 746 714 735
 734 749 0 739 +0 30 764 45 0 749 770 751 0 +7.01264 1.963 0 -1 0 0 0 30 770 24
 0 771 768 764 0 +7.01268 1.9629 34e-6 0 1 0 0 16 771 6 0 ?772 709 773 770 0 0 4
 0 30 768 21 0 756 774 770 0 +7.01268 1.9629 34e-6 1 0 0 0 30 774 17 0 723 775 7
68 0 +7.01264 1.9629 34e-6 0 -1 0 0 16 723 16 0 ?716 773 756 774 0 0 4 0 30 775
 13 0 773 0 774 0 +7.01264 1.963 34e-6 -1 0 0 0 16 773 12 0 ?721 771 723 775 0 0
 4 0 17 721 0 719 716 772 717 776 773 0 746 +0 15 719 7 0 772 777 0 0 17 772 0 7
19 721 720 725 778 771 0 767 +0 17 776 0 769 714 746 725 721 773 0 772 -0 17 746
 0 769 776 736 717 739 715 0 722 -0 15 769 56 0 736 779 0 0 17 722 0 738 739 724
 717 716 723 0 0 -0 14 779 57 0 ?743 705 769 25 780 -0 0 743 705 713 0 14 743 59
 0 ?707 779 738 25 708 -0 0 707 779 713 0 14 705 55 0 ?779 0 766 25 781 -0 0 779
 0 713 0 50 780 63 0 779 781 708 0 +7.01264 1.963 34e-6 0 -1 0 0 0 -1 0 13 713 3
 0 0 0 0 0 0 29 705 0 50 781 62 0 705 782 780 0 +7.01268 1.9629 34e-6 -1 0 0 0 0
 1 0 50 708 64 0 743 780 26 0 +7.01264 1.9629 34e-6 1 0 0 0 0 -1 0 50 782 41 0 7
59 783 781 0 +0 0 0 0 0 1 1 0 0 0 14 759 31 0 ?0 777 747 25 782 -0 0 0 777 713 0
 50 783 25 0 777 0 782 0 +0 0 34e-6 0 0 1 1 0 0 0 14 777 2 0 ?759 707 719 25 783
 +0 0 759 707 713 0 14 707 61 0 ?777 743 752 25 26 -0 0 777 743 713 0 15 766 54
 0 760 705 0 0 17 714 0 769 736 776 732 767 30 0 760 +0 18 725 11 0 776 717 729
 728 ?4 0 29 728 14 0 725 0 726 7.01268 1.963 34e-6 0 17 767 0 766 778 760 725 7
14 30 0 0 -0 17 778 0 766 755 767 729 772 771 0 0 -0 17 755 0 766 760 778 711 75
4 709 0 758 +0 18 711 40 0 753 732 0 28 ?4 0 17 754 0 752 745 753 729 755 709 0
 778 -0 16 709 53 0 ?755 744 771 27 0 0 4 0 17 720 0 719 772 716 729 745 756 0 7
54 +0 17 734 0 747 758 740 732 736 749 0 714 -0 19 706 71 784 4 0 29 25 0 S0 0 8
1 1 784 72 535 706 0 0 0 0 785 0 83 1 785 1 0 74 20 704 1 0 0 784 0 0 0 0 0 0 0
 0 0 0 0 0 0 0 0 0 0 0 0 0 70 16 0 4 T3 0 0 1 20 1 786 786 0 13 17 70 0 3 0 787
 0 0 788 0 0 50 18 65 0 789 790 0 0 +7.01268 1.96272 34e-6 0 1 0 0 0 1 0 30 19 6
9 0 791 792 0 0 +7.01268 1.96272 34e-6 0 0 -1 0 29 20 46 0 793 794 0 7.01268 1.9
6272 0 0 19 21 5 0 3 788 0 795 0 V0 0 16 22 52 0 ?796 0 797 792 0 0 3 0 18 23 19
 0 798 0 799 800 ?3 0 17 798 0 801 802 803 23 804 805 0 806 +0 18 799 15 0 803 2
3 807 808 ?3 0 29 800 22 0 23 808 809 7.01264 1.96272 34e-6 0 29 808 18 0 799 81
0 800 7.01264 1.96286 34e-6 0 29 809 23 0 811 800 812 7.01268 1.96272 34e-6 0 18
 811 10 0 802 807 813 809 ?3 0 29 812 49 0 814 809 815 7.01268 1.96286 0 0 18 81
4 39 0 816 817 793 812 ?3 0 29 815 48 0 817 812 794 7.01264 1.96286 0 0 18 817 3
8 0 818 813 814 815 ?3 0 29 794 47 0 813 815 20 7.01264 1.96272 0 0 18 813 37 0
 819 811 817 794 ?3 0 17 819 0 820 806 821 813 822 823 0 824 +0 15 820 58 0 819
 825 0 0 17 806 0 820 804 819 23 824 826 0 827 -0 17 821 0 820 819 804 817 828 7
97 0 822 +0 17 822 0 829 816 830 817 819 823 0 0 -0 16 823 35 0 ?819 831 832 833
 0 0 3 0 17 824 0 834 835 827 813 806 826 0 830 +0 15 834 60 0 835 789 0 0 17 83
5 0 834 836 824 793 830 832 0 837 +0 17 827 0 834 824 836 23 802 838 0 0 -0 16 8
26 50 0 ?824 797 791 839 0 0 3 0 17 830 0 829 822 840 813 835 832 0 0 -0 15 829
 32 0 840 841 0 0 17 840 0 829 830 816 793 842 843 0 0 -0 16 832 36 0 ?835 823 0
 844 0 0 3 0 30 844 43 0 832 833 845 0 +7.01268 1.96272 0 1 0 0 0 30 833 44 0 82
3 846 844 0 +7.01264 1.96272 0 0 -1 0 0 30 845 42 0 843 844 839 0 +7.01268 1.962
72 0 0 1 0 0 16 843 33 0 ?842 838 831 845 0 0 3 0 30 839 66 0 826 845 847 0 +7.0
1264 1.96272 34e-6 0 0 -1 0 30 847 67 0 797 839 792 0 +7.01264 1.96286 34e-6 0 0
 -1 0 16 797 51 0 ?821 22 826 847 0 0 3 0 30 792 68 0 22 847 19 0 +7.01268 1.962
86 34e-6 0 0 -1 0 17 842 0 848 849 837 814 840 843 0 0 +0 16 838 20 0 ?802 805 8
43 850 0 0 3 0 16 831 34 0 ?818 843 823 846 0 0 3 0 17 818 0 851 828 796 817 816
 831 0 821 +0 30 846 45 0 831 852 833 0 +7.01264 1.96286 0 -1 0 0 0 30 852 24 0
 853 850 846 0 +7.01268 1.96272 34e-6 0 1 0 0 16 853 6 0 ?854 791 855 852 0 0 3
 0 30 850 21 0 838 856 852 0 +7.01268 1.96272 34e-6 1 0 0 0 30 856 17 0 805 857
 850 0 +7.01264 1.96272 34e-6 0 -1 0 0 16 805 16 0 ?798 855 838 856 0 0 3 0 30 8
57 13 0 855 0 856 0 +7.01264 1.96286 34e-6 -1 0 0 0 16 855 12 0 ?803 853 805 857
 0 0 3 0 17 803 0 801 798 854 799 858 855 0 828 +0 15 801 7 0 854 859 0 0 17 854
 0 801 803 802 807 860 853 0 849 +0 17 858 0 851 796 828 807 803 855 0 854 -0 17
 828 0 851 858 818 799 821 797 0 804 -0 15 851 56 0 818 861 0 0 17 804 0 820 821
 806 799 798 805 0 0 -0 14 861 57 0 ?825 787 851 17 862 -0 0 825 787 795 0 14 82
5 59 0 ?789 861 820 17 790 -0 0 789 861 795 0 14 787 55 0 ?861 0 848 17 863 -0 0
 861 0 795 0 50 862 63 0 861 863 790 0 +7.01264 1.96286 34e-6 0 -1 0 0 0 -1 0 13
 795 3 0 0 0 0 0 0 21 787 0 50 863 62 0 787 864 862 0 +7.01268 1.96272 34e-6 -1
 0 0 0 0 1 0 50 790 64 0 825 862 18 0 +7.01264 1.96272 34e-6 1 0 0 0 0 -1 0 50 8
64 41 0 841 865 863 0 +0 0 0 0 0 1 1 0 0 0 14 841 31 0 ?0 859 829 17 864 -0 0 0
 859 795 0 50 865 25 0 859 0 864 0 +0 0 34e-6 0 0 1 1 0 0 0 14 859 2 0 ?841 789
 801 17 865 +0 0 841 789 795 0 14 789 61 0 ?859 825 834 17 18 -0 0 859 825 795 0
 15 848 54 0 842 787 0 0 17 796 0 851 818 858 814 849 22 0 842 +0 18 807 11 0 85
8 799 811 810 ?3 0 29 810 14 0 807 0 808 7.01268 1.96286 34e-6 0 17 849 0 848 86
0 842 807 796 22 0 0 -0 17 860 0 848 837 849 811 854 853 0 0 -0 17 837 0 848 842
 860 793 836 791 0 840 +0 18 793 40 0 835 814 0 20 ?3 0 17 836 0 834 827 835 811
 837 791 0 860 -0 16 791 53 0 ?837 826 853 19 0 0 3 0 17 802 0 801 854 798 811 8
27 838 0 836 +0 17 816 0 829 840 822 814 818 831 0 796 -0 19 788 71 866 3 0 21 1
7 0 S0 0 81 1 866 72 535 788 0 0 0 0 867 0 83 1 867 1 0 74 20 786 1 0 0 866 0 0
 0 0 0 0 0 0 0 0 0 0 0 0 0 0 0 0 0 0 70 8 0 4 T2 0 0 1 20 1 868 868 0 13 9 70 0
 2 0 869 0 0 870 0 0 50 10 65 0 871 872 0 0 +7.012553 1.962892 34e-6 0 1 0 0 0 1
 0 30 11 69 0 873 874 0 0 +7.012553 1.962892 34e-6 0 0 -1 0 29 12 46 0 875 876 0
 7.012553 1.962892 0 0 19 13 5 0 2 870 0 877 0 V0 0 16 14 52 0 ?878 0 879 874 0
 0 2 0 18 15 19 0 880 0 881 882 ?2 0 17 880 0 883 884 885 15 886 887 0 888 +0 18
 881 15 0 885 15 889 890 ?2 0 29 882 22 0 15 890 891 7.012487 1.962892 34e-6 0 2
9 890 18 0 881 892 882 7.012487 1.962928 34e-6 0 29 891 23 0 893 882 894 7.01255
3 1.962892 34e-6 0 18 893 10 0 884 889 895 891 ?2 0 29 894 49 0 896 891 897 7.01
2553 1.962928 0 0 18 896 39 0 898 899 875 894 ?2 0 29 897 48 0 899 894 876 7.012
487 1.962928 0 0 18 899 38 0 900 895 896 897 ?2 0 29 876 47 0 895 897 12 7.01248
7 1.962892 0 0 18 895 37 0 901 893 899 876 ?2 0 17 901 0 902 888 903 895 904 905
 0 906 +0 15 902 58 0 901 907 0 0 17 888 0 902 886 901 15 906 908 0 909 -0 17 90
3 0 902 901 886 899 910 879 0 904 +0 17 904 0 911 898 912 899 901 905 0 0 -0 16
 905 35 0 ?901 913 914 915 0 0 2 0 17 906 0 916 917 909 895 888 908 0 912 +0 15
 916 60 0 917 871 0 0 17 917 0 916 918 906 875 912 914 0 919 +0 17 909 0 916 906
 918 15 884 920 0 0 -0 16 908 50 0 ?906 879 873 921 0 0 2 0 17 912 0 911 904 922
 895 917 914 0 0 -0 15 911 32 0 922 923 0 0 17 922 0 911 912 898 875 924 925 0 0
 -0 16 914 36 0 ?917 905 0 926 0 0 2 0 30 926 43 0 914 915 927 0 +7.012553 1.962
892 0 1 0 0 0 30 915 44 0 905 928 926 0 +7.012487 1.962892 0 0 -1 0 0 30 927 42
 0 925 926 921 0 +7.012553 1.962892 0 0 1 0 0 16 925 33 0 ?924 920 913 927 0 0 2
 0 30 921 66 0 908 927 929 0 +7.012487 1.962892 34e-6 0 0 -1 0 30 929 67 0 879 9
21 874 0 +7.012487 1.962928 34e-6 0 0 -1 0 16 879 51 0 ?903 14 908 929 0 0 2 0 3
0 874 68 0 14 929 11 0 +7.012553 1.962928 34e-6 0 0 -1 0 17 924 0 930 931 919 89
6 922 925 0 0 +0 16 920 20 0 ?884 887 925 932 0 0 2 0 16 913 34 0 ?900 925 905 9
28 0 0 2 0 17 900 0 933 910 878 899 898 913 0 903 +0 30 928 45 0 913 934 915 0 +
7.012487 1.962928 0 -1 0 0 0 30 934 24 0 935 932 928 0 +7.012553 1.962892 34e-6
 0 1 0 0 16 935 6 0 ?936 873 937 934 0 0 2 0 30 932 21 0 920 938 934 0 +7.012553
 1.962892 34e-6 1 0 0 0 30 938 17 0 887 939 932 0 +7.012487 1.962892 34e-6 0 -1
 0 0 16 887 16 0 ?880 937 920 938 0 0 2 0 30 939 13 0 937 0 938 0 +7.012487 1.96
2928 34e-6 -1 0 0 0 16 937 12 0 ?885 935 887 939 0 0 2 0 17 885 0 883 880 936 88
1 940 937 0 910 +0 15 883 7 0 936 941 0 0 17 936 0 883 885 884 889 942 935 0 931
 +0 17 940 0 933 878 910 889 885 937 0 936 -0 17 910 0 933 940 900 881 903 879 0
 886 -0 15 933 56 0 900 943 0 0 17 886 0 902 903 888 881 880 887 0 0 -0 14 943 5
7 0 ?907 869 933 9 944 -0 0 907 869 877 0 14 907 59 0 ?871 943 902 9 872 -0 0 87
1 943 877 0 14 869 55 0 ?943 0 930 9 945 -0 0 943 0 877 0 50 944 63 0 943 945 87
2 0 +7.012487 1.962928 34e-6 0 -1 0 0 0 -1 0 13 877 3 0 0 0 0 0 0 13 869 0 50 94
5 62 0 869 946 944 0 +7.012553 1.962892 34e-6 -1 0 0 0 0 1 0 50 872 64 0 907 944
 10 0 +7.012487 1.962892 34e-6 1 0 0 0 0 -1 0 50 946 41 0 923 947 945 0 +0 0 0 0
 0 1 1 0 0 0 14 923 31 0 ?0 941 911 9 946 -0 0 0 941 877 0 50 947 25 0 941 0 946
 0 +0 0 34e-6 0 0 1 1 0 0 0 14 941 2 0 ?923 871 883 9 947 +0 0 923 871 877 0 14
 871 61 0 ?941 907 916 9 10 -0 0 941 907 877 0 15 930 54 0 924 869 0 0 17 878 0
 933 900 940 896 931 14 0 924 +0 18 889 11 0 940 881 893 892 ?2 0 29 892 14 0 88
9 0 890 7.012553 1.962928 34e-6 0 17 931 0 930 942 924 889 878 14 0 0 -0 17 942
 0 930 919 931 893 936 935 0 0 -0 17 919 0 930 924 942 875 918 873 0 922 +0 18 8
75 40 0 917 896 0 12 ?2 0 17 918 0 916 909 917 893 919 873 0 942 -0 16 873 53 0
 ?919 908 935 11 0 0 2 0 17 884 0 883 936 880 893 909 920 0 918 +0 17 898 0 911
 922 904 896 900 913 0 878 -0 19 870 71 948 2 0 13 9 0 S0 0 81 1 948 72 535 870
 0 0 0 0 949 0 83 1 949 1 0 74 20 868 1 0 0 948 0 0 0 0 0 0 0 0 0 0 0 0 0 0 0 0
 0 0 0 0 1 0 
